<svg width="178" height="79" viewBox="0 0 178 79" fill="none" xmlns="http://www.w3.org/2000/svg">
<g opacity="0.5">
<rect x="0.499623" y="0.771962" width="176.907" height="77.4562" fill="#096084"/>
<path fill-rule="evenodd" clip-rule="evenodd" d="M102.968 30.9735C102.968 29.8277 102.039 28.8988 100.893 28.8988H82.4275C81.6257 28.8988 80.9384 29.2424 80.4803 29.9297L72.921 39.2075L80.4803 48.4853C80.9384 49.058 81.6257 49.5162 82.4275 49.5162H100.893C102.039 49.5162 102.968 48.5873 102.968 47.4415C102.968 41.9522 102.968 36.4628 102.968 30.9735Z" stroke="white" stroke-width="2.07471" stroke-linecap="square"/>
<path fill-rule="evenodd" clip-rule="evenodd" d="M93.2623 44.483C93.6674 44.8881 94.3242 44.8881 94.7293 44.483C95.1344 44.0778 95.1344 43.421 94.7293 43.0159L91.5043 39.7909L94.7293 36.5659C95.1344 36.1608 95.1344 35.504 94.7293 35.0989C94.3242 34.6938 93.6674 34.6938 93.2623 35.0989L90.0373 38.3239L86.8123 35.0989C86.4071 34.6938 85.7503 34.6938 85.3452 35.0989C84.9401 35.504 84.9401 36.1608 85.3452 36.5659L88.5702 39.7909L85.3452 43.0159C84.9401 43.421 84.9401 44.0778 85.3452 44.483C85.7503 44.8881 86.4072 44.8881 86.8123 44.483L90.0373 41.258L93.2623 44.483Z" fill="white"/>
<rect x="0.499623" y="0.771962" width="176.907" height="77.4562" stroke="white" stroke-width="0.999246"/>
</g>
</svg>
