<svg width="224" height="224" viewBox="0 0 224 224" fill="none" xmlns="http://www.w3.org/2000/svg">
<g id="Group 1321317225">
<g id="Rectangle" filter="url(#filter0_d_9_53)">
<rect x="66" y="22" width="92" height="92" rx="46" fill="white"/>
</g>
<path id="Vector" opacity="0.9" fill-rule="evenodd" clip-rule="evenodd" d="M107.714 56.6061C107.714 55.3845 108.166 54.2129 108.97 53.3491C109.773 52.4853 110.863 52 112 52C113.137 52 114.227 52.4853 115.03 53.3491C115.834 54.2129 116.286 55.3845 116.286 56.6061V67.1111C116.286 68.3327 115.834 69.5043 115.03 70.3681C114.227 71.2319 113.137 71.7172 112 71.7172C110.863 71.7172 109.773 71.2319 108.97 70.3681C108.166 69.5043 107.714 68.3327 107.714 67.1111V56.6061ZM113.429 77.7511C115.809 77.3815 117.986 76.1025 119.56 74.1484C121.134 72.1942 122 69.6959 122 67.1111C122 66.7039 121.849 66.3134 121.582 66.0255C121.314 65.7375 120.95 65.5758 120.571 65.5758C120.193 65.5758 119.829 65.7375 119.561 66.0255C119.293 66.3134 119.143 66.7039 119.143 67.1111C119.143 69.1471 118.39 71.0997 117.051 72.5394C115.711 73.9791 113.894 74.7879 112 74.7879C110.106 74.7879 108.289 73.9791 106.949 72.5394C105.61 71.0997 104.857 69.1471 104.857 67.1111C104.857 66.7039 104.707 66.3134 104.439 66.0255C104.171 65.7375 103.807 65.5758 103.429 65.5758C103.05 65.5758 102.686 65.7375 102.418 66.0255C102.151 66.3134 102 66.7039 102 67.1111C102 69.6959 102.866 72.1942 104.44 74.1484C106.014 76.1025 108.191 77.3815 110.571 77.7511V80.9293H108.593C108.215 80.9293 107.851 81.0911 107.583 81.379C107.315 81.6669 107.165 82.0574 107.165 82.4646C107.165 82.8718 107.315 83.2624 107.583 83.5503C107.851 83.8382 108.215 84 108.593 84H115.407C115.785 84 116.149 83.8382 116.417 83.5503C116.685 83.2624 116.835 82.8718 116.835 82.4646C116.835 82.0574 116.685 81.6669 116.417 81.379C116.149 81.0911 115.785 80.9293 115.407 80.9293H113.429V77.7511Z" fill="url(#paint0_linear_9_53)"/>
</g>
<defs>
<filter id="filter0_d_9_53" x="0" y="0" width="224" height="224" filterUnits="userSpaceOnUse" color-interpolation-filters="sRGB">
<feFlood flood-opacity="0" result="BackgroundImageFix"/>
<feColorMatrix in="SourceAlpha" type="matrix" values="0 0 0 0 0 0 0 0 0 0 0 0 0 0 0 0 0 0 127 0" result="hardAlpha"/>
<feOffset dy="44"/>
<feGaussianBlur stdDeviation="33"/>
<feColorMatrix type="matrix" values="0 0 0 0 0.691633 0 0 0 0 0.764753 0 0 0 0 0.824162 0 0 0 0.727846 0"/>
<feBlend mode="normal" in2="BackgroundImageFix" result="effect1_dropShadow_9_53"/>
<feBlend mode="normal" in="SourceGraphic" in2="effect1_dropShadow_9_53" result="shape"/>
</filter>
<linearGradient id="paint0_linear_9_53" x1="100.318" y1="64.1124" x2="130.93" y2="64.0709" gradientUnits="userSpaceOnUse">
<stop stop-color="#FF6B59"/>
<stop offset="1" stop-color="#D35646"/>
</linearGradient>
</defs>
</svg>
