<svg width="110" height="110" viewBox="0 0 110 110" fill="none" xmlns="http://www.w3.org/2000/svg">
<path d="M77.3644 82.5H62.5321V65.9206H49.6774V81.9465H43.0852H37.8115V50.0123L56.5992 30.8L83.2974 50.0123L77.3644 60.124V82.5Z" fill="white"/>
<path d="M33.4596 81.9582H48.6263V66.0105H61.7707V81.9582H68.5115H73.9041L75.167 51.7L54.693 31.0613L27.393 50.1798L33.4596 60.2422V81.9582Z" fill="#BAED97"/>
<path d="M85.76 53.3187C87.3853 51.0032 86.7675 47.8016 84.3973 46.2571L57.5437 28.7579C56.2204 27.8956 54.5129 27.8956 53.1896 28.7579L50.8874 30.2582C49.2255 31.3412 47.025 30.1486 47.025 28.165C47.025 26.7852 45.9064 25.6667 44.5266 25.6667H42.8542C40.5507 25.6667 38.6833 27.534 38.6833 29.8375V35.5013C38.6833 37.1916 37.8293 38.7675 36.4131 39.6903L26.336 46.2571C23.9659 47.8016 23.3481 51.0032 24.9734 53.3187L29.8134 60.2141C29.8872 60.3193 29.9476 60.4333 29.9929 60.5535C30.0564 60.7216 30.0899 60.8995 30.0918 61.0791L30.2882 79.2607C30.3178 82.0009 32.5476 84.2066 35.2879 84.2066H46.1958C48.9573 84.2066 51.1958 81.9681 51.1958 79.2066V71.6518C51.1958 69.3483 53.0632 67.4809 55.3667 67.4809C57.6702 67.4809 59.5375 69.3483 59.5375 71.6518V79.2066C59.5375 81.9681 61.7761 84.2066 64.5375 84.2066H75.3917C78.1531 84.2066 80.3917 81.9681 80.3917 79.2066V62.0237C80.3917 61.4473 80.535 60.8798 80.8088 60.3725L85.76 53.3187ZM29.3393 52.4855C28.5184 51.3099 28.8325 49.6883 30.033 48.9042L52.6324 34.1429C54.2937 33.0578 56.4396 33.0578 58.1009 34.1429L80.7004 48.9042C81.9008 49.6883 82.2149 51.3099 81.3941 52.4855C80.6046 53.6162 79.0572 53.9106 77.9077 53.1488L58.1287 40.0414C56.4545 38.9319 54.2789 38.9319 52.6046 40.0414L32.8256 53.1488C31.6761 53.9106 30.1287 53.6162 29.3393 52.4855ZM76.2208 75.0252C76.2208 77.7866 73.9823 80.0252 71.2208 80.0252H68.7083C65.9469 80.0252 63.7083 77.7866 63.7083 75.0252V68.2995C63.7083 65.5381 61.4698 63.2995 58.7083 63.2995H52.025C49.2636 63.2995 47.025 65.5381 47.025 68.2995V75.0252C47.025 77.7866 44.7864 80.0252 42.025 80.0252H39.5125C36.7511 80.0252 34.5125 77.7866 34.5125 75.0252V60.1326C34.5125 58.4547 35.3541 56.8887 36.7534 55.9628L52.6076 45.4724C54.2804 44.3655 56.4529 44.3655 58.1257 45.4724L73.9799 55.9628C75.3792 56.8886 76.2208 58.4547 76.2208 60.1326V75.0252Z" fill="black"/>
</svg>
