<svg width="150" height="280" viewBox="0 0 150 280" fill="none" xmlns="http://www.w3.org/2000/svg">
<g clip-path="url(#clip0_256_444)">
<g filter="url(#filter0_d_256_444)">
<path d="M97.3639 102.5H82.5316V85.9206H69.6769V101.946H63.0848H57.811V70.0123L76.5987 50.8L103.297 70.0123L97.3639 80.124V102.5Z" fill="white"/>
<path d="M53.4591 101.958H68.6258V86.0104H81.7702V101.958H88.511H93.9036L95.1665 71.7L74.6925 51.0613L47.3925 70.1798L53.4591 80.2421V101.958Z" fill="#F4F1C1"/>
<path d="M105.76 73.3187C107.385 71.0032 106.767 67.8016 104.397 66.2571L77.5437 48.7579C76.2204 47.8956 74.5129 47.8956 73.1896 48.7579L70.8874 50.2582C69.2255 51.3411 67.025 50.1486 67.025 48.165C67.025 46.7852 65.9064 45.6667 64.5266 45.6667H62.8542C60.5507 45.6667 58.6833 47.534 58.6833 49.8375V55.5013C58.6833 57.1916 57.8293 58.7675 56.4131 59.6903L46.336 66.2571C43.9659 67.8016 43.3481 71.0032 44.9734 73.3187L49.8134 80.2141C49.8872 80.3193 49.9476 80.4333 49.9929 80.5535C50.0564 80.7215 50.0899 80.8994 50.0918 81.079L50.2882 99.2606C50.3178 102.001 52.5476 104.207 55.2879 104.207H66.1958C68.9573 104.207 71.1958 101.968 71.1958 99.2066V91.6517C71.1958 89.3483 73.0632 87.4809 75.3667 87.4809C77.6702 87.4809 79.5375 89.3483 79.5375 91.6517V99.2066C79.5375 101.968 81.7761 104.207 84.5375 104.207H95.3917C98.1531 104.207 100.392 101.968 100.392 99.2066V82.0237C100.392 81.4472 100.535 80.8798 100.809 80.3725L105.76 73.3187ZM49.3393 72.4855C48.5184 71.3099 48.8325 69.6883 50.033 68.9041L72.6324 54.1429C74.2937 53.0577 76.4396 53.0577 78.1009 54.1429L100.7 68.9041C101.901 69.6883 102.215 71.3099 101.394 72.4855C100.605 73.6162 99.0572 73.9106 97.9077 73.1488L78.1287 60.0413C76.4545 58.9318 74.2789 58.9318 72.6046 60.0413L52.8256 73.1488C51.6761 73.9106 50.1287 73.6162 49.3393 72.4855ZM96.2208 95.0252C96.2208 97.7866 93.9823 100.025 91.2208 100.025H88.7083C85.9469 100.025 83.7083 97.7866 83.7083 95.0252V88.2995C83.7083 85.5381 81.4698 83.2995 78.7083 83.2995H72.025C69.2636 83.2995 67.025 85.5381 67.025 88.2995V95.0252C67.025 97.7866 64.7864 100.025 62.025 100.025H59.5125C56.7511 100.025 54.5125 97.7866 54.5125 95.0252V80.1326C54.5125 78.4547 55.3541 76.8886 56.7534 75.9627L72.6076 65.4724C74.2804 64.3655 76.4529 64.3655 78.1257 65.4724L93.9799 75.9627C95.3792 76.8886 96.2208 78.4547 96.2208 80.1326V95.0252Z" fill="black"/>
</g>
<g opacity="0.5" filter="url(#filter1_f_256_444)">
<circle cx="75" cy="213" r="55" fill="#F4F1C1"/>
</g>
<path d="M97.3639 240.5H82.5316V223.921H69.6769V239.947H63.0848H57.811V208.012L76.5987 188.8L103.297 208.012L97.3639 218.124V240.5Z" fill="white"/>
<path d="M53.4591 239.958H68.6258V224.011H81.7702V239.958H88.511H93.9036L95.1665 209.7L74.6925 189.061L47.3925 208.18L53.4591 218.242V239.958Z" fill="#A1D77C"/>
<path d="M105.76 211.319C107.385 209.003 106.767 205.802 104.397 204.257L77.5437 186.758C76.2204 185.896 74.5129 185.896 73.1896 186.758L70.8874 188.258C69.2255 189.341 67.025 188.149 67.025 186.165C67.025 184.785 65.9064 183.667 64.5266 183.667H62.8542C60.5507 183.667 58.6833 185.534 58.6833 187.838V193.501C58.6833 195.192 57.8293 196.767 56.4131 197.69L46.336 204.257C43.9659 205.802 43.3481 209.003 44.9734 211.319L49.8134 218.214C49.8872 218.319 49.9476 218.433 49.9929 218.554C50.0564 218.722 50.0899 218.899 50.0918 219.079L50.2882 237.261C50.3178 240.001 52.5476 242.207 55.2879 242.207H66.1958C68.9573 242.207 71.1958 239.968 71.1958 237.207V229.652C71.1958 227.348 73.0632 225.481 75.3667 225.481C77.6702 225.481 79.5375 227.348 79.5375 229.652V237.207C79.5375 239.968 81.7761 242.207 84.5375 242.207H95.3917C98.1531 242.207 100.392 239.968 100.392 237.207V220.024C100.392 219.447 100.535 218.88 100.809 218.373L105.76 211.319ZM49.3393 210.486C48.5184 209.31 48.8325 207.688 50.033 206.904L72.6324 192.143C74.2937 191.058 76.4396 191.058 78.1009 192.143L100.7 206.904C101.901 207.688 102.215 209.31 101.394 210.486C100.605 211.616 99.0572 211.911 97.9077 211.149L78.1287 198.041C76.4545 196.932 74.2789 196.932 72.6046 198.041L52.8256 211.149C51.6761 211.911 50.1287 211.616 49.3393 210.486ZM96.2208 233.025C96.2208 235.787 93.9823 238.025 91.2208 238.025H88.7083C85.9469 238.025 83.7083 235.787 83.7083 233.025V226.3C83.7083 223.538 81.4698 221.3 78.7083 221.3H72.025C69.2636 221.3 67.025 223.538 67.025 226.3V233.025C67.025 235.787 64.7864 238.025 62.025 238.025H59.5125C56.7511 238.025 54.5125 235.787 54.5125 233.025V218.133C54.5125 216.455 55.3541 214.889 56.7534 213.963L72.6076 203.472C74.2804 202.366 76.4529 202.366 78.1257 203.472L93.9799 213.963C95.3792 214.889 96.2208 216.455 96.2208 218.133V233.025Z" fill="black"/>
</g>
<rect x="0.5" y="0.5" width="149" height="279" rx="4.5" stroke="#9747FF" stroke-dasharray="10 5"/>
<defs>
<filter id="filter0_d_256_444" x="16" y="20" width="118" height="118" filterUnits="userSpaceOnUse" color-interpolation-filters="sRGB">
<feFlood flood-opacity="0" result="BackgroundImageFix"/>
<feColorMatrix in="SourceAlpha" type="matrix" values="0 0 0 0 0 0 0 0 0 0 0 0 0 0 0 0 0 0 127 0" result="hardAlpha"/>
<feOffset dy="4"/>
<feGaussianBlur stdDeviation="2"/>
<feComposite in2="hardAlpha" operator="out"/>
<feColorMatrix type="matrix" values="0 0 0 0 0 0 0 0 0 0 0 0 0 0 0 0 0 0 0.25 0"/>
<feBlend mode="normal" in2="BackgroundImageFix" result="effect1_dropShadow_256_444"/>
<feBlend mode="normal" in="SourceGraphic" in2="effect1_dropShadow_256_444" result="shape"/>
</filter>
<filter id="filter1_f_256_444" x="-30" y="108" width="210" height="210" filterUnits="userSpaceOnUse" color-interpolation-filters="sRGB">
<feFlood flood-opacity="0" result="BackgroundImageFix"/>
<feBlend mode="normal" in="SourceGraphic" in2="BackgroundImageFix" result="shape"/>
<feGaussianBlur stdDeviation="25" result="effect1_foregroundBlur_256_444"/>
</filter>
<clipPath id="clip0_256_444">
<rect width="150" height="280" rx="5" fill="white"/>
</clipPath>
</defs>
</svg>
