<svg width="65" height="60" viewBox="0 0 65 60" fill="none" xmlns="http://www.w3.org/2000/svg">
<path d="M54.3639 57.5H39.5316V40.9206H26.6769V56.9465H20.0848H14.811V25.0123L33.5987 5.80005L60.2969 25.0123L54.3639 35.124V57.5Z" fill="white"/>
<path d="M10.4591 56.9582H25.6258V41.0105H38.7702V56.9582H45.511H50.9036L52.1665 26.7L31.6925 6.06134L4.39247 25.1798L10.4591 35.2422V56.9582Z" fill="#A1D77C"/>
<path d="M62.76 28.3187C64.3853 26.0032 63.7675 22.8016 61.3973 21.2571L34.5437 3.75793C33.2204 2.89561 31.5129 2.89562 30.1896 3.75793L27.8874 5.2582C26.2255 6.34117 24.025 5.14865 24.025 3.16505C24.025 1.78524 22.9064 0.666687 21.5266 0.666687H19.8542C17.5507 0.666687 15.6833 2.53403 15.6833 4.83752V10.5013C15.6833 12.1916 14.8293 13.7675 13.4131 14.6903L3.33604 21.2571C0.965875 22.8016 0.348074 26.0032 1.97338 28.3187L6.81342 35.2141C6.88724 35.3193 6.94755 35.4333 6.99295 35.5535C7.05642 35.7216 7.08988 35.8995 7.09182 36.0791L7.28824 54.2607C7.31784 57.0009 9.54759 59.2066 12.2879 59.2066H23.1958C25.9573 59.2066 28.1958 56.9681 28.1958 54.2066V46.6518C28.1958 44.3483 30.0632 42.4809 32.3667 42.4809C34.6702 42.4809 36.5375 44.3483 36.5375 46.6518V54.2066C36.5375 56.9681 38.7761 59.2066 41.5375 59.2066H52.3917C55.1531 59.2066 57.3917 56.9681 57.3917 54.2066V37.0237C57.3917 36.4473 57.535 35.8798 57.8088 35.3725L62.76 28.3187ZM6.33926 27.4855C5.51839 26.3099 5.8325 24.6883 7.03297 23.9042L29.6324 9.14291C31.2937 8.05777 33.4396 8.05777 35.1009 9.14291L57.7004 23.9042C58.9008 24.6883 59.2149 26.3099 58.3941 27.4855C57.6046 28.6162 56.0572 28.9106 54.9077 28.1488L35.1287 15.0414C33.4545 13.9319 31.2789 13.9319 29.6046 15.0414L9.82562 28.1488C8.67609 28.9106 7.12874 28.6162 6.33926 27.4855ZM53.2208 50.0252C53.2208 52.7866 50.9823 55.0252 48.2208 55.0252H45.7083C42.9469 55.0252 40.7083 52.7866 40.7083 50.0252V43.2995C40.7083 40.5381 38.4698 38.2995 35.7083 38.2995H29.025C26.2636 38.2995 24.025 40.5381 24.025 43.2995V50.0252C24.025 52.7866 21.7864 55.0252 19.025 55.0252H16.5125C13.7511 55.0252 11.5125 52.7866 11.5125 50.0252V35.1326C11.5125 33.4547 12.3541 31.8887 13.7534 30.9628L29.6076 20.4724C31.2804 19.3655 33.4529 19.3655 35.1257 20.4724L50.9799 30.9628C52.3792 31.8886 53.2208 33.4547 53.2208 35.1326V50.0252Z" fill="black"/>
</svg>
