<svg width="190" height="190" viewBox="0 0 190 190" fill="none" xmlns="http://www.w3.org/2000/svg">
<g filter="url(#filter0_d_914_4777)">
<path d="M133.629 142.499H108.009V113.862H85.8057V141.543H74.4192H65.3101V86.384L97.7614 53.1992L143.877 86.384L133.629 103.85V142.499Z" fill="white"/>
<path d="M57.793 141.564H83.99V114.018H106.694V141.564H118.337H127.652L129.833 89.3L94.4688 53.6514L47.3142 86.6742L57.793 104.055V141.564Z" fill="#F4F1C1"/>
<path d="M150.293 89.0149C151.919 86.6993 151.301 83.4977 148.931 81.9532L98.3631 49.0009C96.7039 47.9196 94.5628 47.9196 92.9035 49.0009L87.8964 52.2638C85.0258 54.1344 81.225 52.0746 81.225 48.6484V48.6484C81.225 46.2651 79.293 44.333 76.9097 44.333H71.8167C69.0552 44.333 66.8167 46.5716 66.8167 49.333V63.2907C66.8167 64.981 65.9626 66.5569 64.5465 67.4798L42.336 81.9532C39.9659 83.4977 39.3481 86.6993 40.9734 89.0149L51.4959 104.006C51.6234 104.188 51.7276 104.384 51.806 104.592V104.592C51.9156 104.882 51.9734 105.19 51.9768 105.5L52.3549 140.501C52.3845 143.242 54.6143 145.447 57.3546 145.447H83.4292C86.1906 145.447 88.4292 143.209 88.4292 140.447V121.558C88.4292 118.796 90.6677 116.558 93.4292 116.558H97.8375C100.599 116.558 102.837 118.796 102.837 121.558V140.447C102.837 143.209 105.076 145.447 107.837 145.447H133.858C136.62 145.447 138.858 143.209 138.858 140.447V106.877C138.858 106.049 139.064 105.233 139.458 104.503L139.579 104.279L150.293 89.0149ZM50.6769 90.6565C49.259 88.6258 49.8016 85.8249 51.8751 84.4705L92.8991 57.6749C94.5604 56.5897 96.7062 56.5897 98.3676 57.6749L139.392 84.4705C141.465 85.8249 142.008 88.6258 140.59 90.6565V90.6565C139.226 92.6095 136.553 93.118 134.568 91.8022L98.3954 67.8308C96.7211 66.7213 94.5455 66.7213 92.8713 67.8308L56.6988 91.8022C54.7132 93.118 52.0405 92.6095 50.6769 90.6565V90.6565ZM131.654 133.225C131.654 135.986 129.416 138.225 126.654 138.225H115.042C112.28 138.225 110.042 135.986 110.042 133.225V114.335C110.042 111.574 107.803 109.335 105.042 109.335H86.225C83.4636 109.335 81.225 111.574 81.225 114.335V133.225C81.225 135.986 78.9864 138.225 76.225 138.225H64.6125C61.8511 138.225 59.6125 135.986 59.6125 133.225V101.911C59.6125 100.233 60.4541 98.6669 61.8534 97.741L92.8743 77.2152C94.5471 76.1083 96.7195 76.1083 98.3924 77.2152L129.413 97.741C130.813 98.6669 131.654 100.233 131.654 101.911V133.225Z" fill="black"/>
</g>
<defs>
<filter id="filter0_d_914_4777" x="-4" y="0" width="198" height="198" filterUnits="userSpaceOnUse" color-interpolation-filters="sRGB">
<feFlood flood-opacity="0" result="BackgroundImageFix"/>
<feColorMatrix in="SourceAlpha" type="matrix" values="0 0 0 0 0 0 0 0 0 0 0 0 0 0 0 0 0 0 127 0" result="hardAlpha"/>
<feOffset dy="4"/>
<feGaussianBlur stdDeviation="2"/>
<feComposite in2="hardAlpha" operator="out"/>
<feColorMatrix type="matrix" values="0 0 0 0 0 0 0 0 0 0 0 0 0 0 0 0 0 0 0.25 0"/>
<feBlend mode="normal" in2="BackgroundImageFix" result="effect1_dropShadow_914_4777"/>
<feBlend mode="normal" in="SourceGraphic" in2="effect1_dropShadow_914_4777" result="shape"/>
</filter>
</defs>
</svg>
