<svg width="110" height="110" viewBox="0 0 110 110" fill="none" xmlns="http://www.w3.org/2000/svg">
<path fill-rule="evenodd" clip-rule="evenodd" d="M62.0285 22.4158C62.4815 22.5709 62.8543 22.8995 63.0649 23.3295C63.2755 23.7594 63.3067 24.2554 63.1516 24.7083L61.871 28.4484C61.2707 30.2011 60.2923 31.8004 59.0051 33.133C57.7179 34.4655 56.1535 35.4987 54.4226 36.1594L45.9935 39.3789C45.5493 39.5364 45.0612 39.514 44.6333 39.3165C44.2055 39.1189 43.8719 38.7619 43.7037 38.3217C43.5356 37.8814 43.5462 37.3929 43.7335 36.9604C43.9207 36.528 44.2696 36.1859 44.7057 36.0072L53.1348 32.7877C54.3713 32.3158 55.4889 31.5776 56.4084 30.6256C57.3278 29.6736 58.0267 28.5311 58.4554 27.2789L59.736 23.5388C59.8911 23.0859 60.2197 22.7131 60.6497 22.5025C61.0796 22.2919 61.5756 22.2607 62.0285 22.4158Z" fill="black"/>
<path d="M23.2412 42.7026C23.2412 40.7876 24.0019 38.951 25.3561 37.5969C26.7102 36.2428 28.5467 35.4821 30.4617 35.4821H81.0053C82.9203 35.4821 84.7569 36.2428 86.111 37.5969C87.4651 38.951 88.2258 40.7876 88.2258 42.7026V71.5846C88.2258 73.4996 87.4651 75.3362 86.111 76.6903C84.7569 78.0444 82.9203 78.8051 81.0053 78.8051H30.4617C28.5467 78.8051 26.7102 78.0444 25.3561 76.6903C24.0019 75.3362 23.2412 73.4996 23.2412 71.5846V42.7026Z" fill="white"/>
<path fill-rule="evenodd" clip-rule="evenodd" d="M81.0053 42.7026H30.4617V71.5846H81.0053V42.7026ZM30.4617 35.4821C28.5467 35.4821 26.7102 36.2428 25.3561 37.5969C24.0019 38.951 23.2412 40.7876 23.2412 42.7026V71.5846C23.2412 73.4996 24.0019 75.3362 25.3561 76.6903C26.7102 78.0444 28.5467 78.8051 30.4617 78.8051H81.0053C82.9203 78.8051 84.7569 78.0444 86.111 76.6903C87.4651 75.3362 88.2258 73.4996 88.2258 71.5846V42.7026C88.2258 40.7876 87.4651 38.951 86.111 37.5969C84.7569 36.2428 82.9203 35.4821 81.0053 35.4821H30.4617Z" fill="white"/>
<path d="M26.8516 45.4103C26.8516 43.7347 27.5489 42.1277 28.7902 40.9428C30.0314 39.758 31.7149 39.0923 33.4704 39.0923H79.802C81.5574 39.0923 83.2409 39.758 84.4822 40.9428C85.7235 42.1277 86.4208 43.7347 86.4208 45.4103V70.6821C86.4208 72.3577 85.7235 73.9647 84.4822 75.1496C83.2409 76.3344 81.5574 77 79.802 77H33.4704C31.7149 77 30.0314 76.3344 28.7902 75.1496C27.5489 73.9647 26.8516 72.3577 26.8516 70.6821V45.4103Z" fill="#F4F1C1"/>
<path fill-rule="evenodd" clip-rule="evenodd" d="M79.802 45.4103H33.4704V70.6821H79.802V45.4103ZM33.4704 39.0923C31.7149 39.0923 30.0314 39.758 28.7902 40.9428C27.5489 42.1277 26.8516 43.7347 26.8516 45.4103V70.6821C26.8516 72.3577 27.5489 73.9647 28.7902 75.1496C30.0314 76.3344 31.7149 77 33.4704 77H79.802C81.5574 77 83.2409 76.3344 84.4822 75.1496C85.7235 73.9647 86.4208 72.3577 86.4208 70.6821V45.4103C86.4208 43.7347 85.7235 42.1277 84.4822 40.9428C83.2409 39.758 81.5574 39.0923 79.802 39.0923H33.4704Z" fill="#F4F1C1"/>
<path fill-rule="evenodd" clip-rule="evenodd" d="M20.5332 41.8001C20.5332 39.4063 21.4841 37.1106 23.1768 35.418C24.8694 33.7253 27.1651 32.7744 29.5588 32.7744H80.1024C82.4962 32.7744 84.7919 33.7253 86.4845 35.418C88.1772 37.1106 89.1281 39.4063 89.1281 41.8001V70.6821C89.1281 73.0759 88.1772 75.3716 86.4845 77.0642C84.7919 78.7568 82.4962 79.7077 80.1024 79.7077H29.5588C27.1651 79.7077 24.8694 78.7568 23.1768 77.0642C21.4841 75.3716 20.5332 73.0759 20.5332 70.6821V41.8001ZM29.5588 36.3847C28.1226 36.3847 26.7452 36.9552 25.7296 37.9708C24.714 38.9864 24.1435 40.3638 24.1435 41.8001V70.6821C24.1435 72.1184 24.714 73.4958 25.7296 74.5114C26.7452 75.5269 28.1226 76.0975 29.5588 76.0975H80.1024C81.5387 76.0975 82.9161 75.5269 83.9317 74.5114C84.9473 73.4958 85.5178 72.1184 85.5178 70.6821V41.8001C85.5178 40.3638 84.9473 38.9864 83.9317 37.9708C82.9161 36.9552 81.5387 36.3847 80.1024 36.3847H29.5588Z" fill="black"/>
<path d="M31.3643 44.5077C31.3643 44.2684 31.4593 44.0388 31.6286 43.8695C31.7979 43.7003 32.0274 43.6052 32.2668 43.6052H34.072C34.3113 43.6052 34.5409 43.7003 34.7102 43.8695C34.8794 44.0388 34.9745 44.2684 34.9745 44.5077V46.3129C34.9745 46.5522 34.8794 46.7818 34.7102 46.9511C34.5409 47.1203 34.3113 47.2154 34.072 47.2154H32.2668C32.0274 47.2154 31.7979 47.1203 31.6286 46.9511C31.4593 46.7818 31.3643 46.5522 31.3643 46.3129V44.5077Z" fill="black"/>
<path fill-rule="evenodd" clip-rule="evenodd" d="M28.6562 44.5077C28.6562 43.5502 29.0366 42.6319 29.7137 41.9549C30.3907 41.2778 31.309 40.8975 32.2665 40.8975H34.0716C35.0291 40.8975 35.9474 41.2778 36.6245 41.9549C37.3015 42.6319 37.6819 43.5502 37.6819 44.5077V46.3128C37.6819 47.2703 37.3015 48.1886 36.6245 48.8657C35.9474 49.5427 35.0291 49.9231 34.0716 49.9231H32.2665C31.309 49.9231 30.3907 49.5427 29.7137 48.8657C29.0366 48.1886 28.6562 47.2703 28.6562 46.3128V44.5077ZM33.1691 46.071C33.4433 45.9123 33.6711 45.6845 33.8297 45.4103C33.6711 45.1361 33.4433 44.9083 33.1691 44.7496C32.8949 44.9083 32.6671 45.1361 32.5084 45.4103C32.6672 45.6847 32.8947 45.9157 33.1691 46.071Z" fill="black"/>
<path d="M42.1943 44.5077C42.1943 44.2684 42.2894 44.0388 42.4587 43.8695C42.628 43.7003 42.8575 43.6052 43.0969 43.6052H44.902C45.1414 43.6052 45.371 43.7003 45.5402 43.8695C45.7095 44.0388 45.8046 44.2684 45.8046 44.5077V46.3129C45.8046 46.5522 45.7095 46.7818 45.5402 46.9511C45.371 47.1203 45.1414 47.2154 44.902 47.2154H43.0969C42.8575 47.2154 42.628 47.1203 42.4587 46.9511C42.2894 46.7818 42.1943 46.5522 42.1943 46.3129V44.5077Z" fill="black"/>
<path fill-rule="evenodd" clip-rule="evenodd" d="M39.4873 44.5077C39.4873 43.5502 39.8677 42.6319 40.5447 41.9549C41.2218 41.2778 42.1401 40.8975 43.0976 40.8975H44.9027C45.8602 40.8975 46.7785 41.2778 47.4555 41.9549C48.1326 42.6319 48.5129 43.5502 48.5129 44.5077V46.3128C48.5129 47.2703 48.1326 48.1886 47.4555 48.8657C46.7785 49.5427 45.8602 49.9231 44.9027 49.9231H43.0976C42.1401 49.9231 41.2218 49.5427 40.5447 48.8657C39.8677 48.1886 39.4873 47.2703 39.4873 46.3128V44.5077ZM44.0001 46.071C44.2743 45.9123 44.5021 45.6845 44.6608 45.4103C44.5021 45.1361 44.2743 44.9083 44.0001 44.7496C43.7259 44.9083 43.4981 45.1361 43.3394 45.4103C43.4983 45.6847 43.7257 45.9157 44.0001 46.071Z" fill="black"/>
<path d="M53.0254 44.5077C53.0254 44.2684 53.1205 44.0388 53.2897 43.8695C53.459 43.7003 53.6886 43.6052 53.928 43.6052H55.7331C55.9725 43.6052 56.202 43.7003 56.3713 43.8695C56.5406 44.0388 56.6356 44.2684 56.6356 44.5077V46.3129C56.6356 46.5522 56.5406 46.7818 56.3713 46.9511C56.202 47.1203 55.9725 47.2154 55.7331 47.2154H53.928C53.6886 47.2154 53.459 47.1203 53.2897 46.9511C53.1205 46.7818 53.0254 46.5522 53.0254 46.3129V44.5077Z" fill="black"/>
<path fill-rule="evenodd" clip-rule="evenodd" d="M50.3174 44.5077C50.3174 43.5502 50.6977 42.6319 51.3748 41.9549C52.0519 41.2778 52.9701 40.8975 53.9276 40.8975H55.7328C56.6903 40.8975 57.6085 41.2778 58.2856 41.9549C58.9627 42.6319 59.343 43.5502 59.343 44.5077V46.3128C59.343 47.2703 58.9627 48.1886 58.2856 48.8657C57.6085 49.5427 56.6903 49.9231 55.7328 49.9231H53.9276C52.9701 49.9231 52.0519 49.5427 51.3748 48.8657C50.6977 48.1886 50.3174 47.2703 50.3174 46.3128V44.5077ZM54.8302 46.071C55.1044 45.9123 55.3322 45.6845 55.4909 45.4103C55.3322 45.1361 55.1044 44.9083 54.8302 44.7496C54.556 44.9083 54.3282 45.1361 54.1695 45.4103C54.3284 45.6847 54.5558 45.9157 54.8302 46.071Z" fill="black"/>
<path d="M63.8564 44.5077C63.8564 44.2684 63.9515 44.0388 64.1208 43.8695C64.2901 43.7003 64.5196 43.6052 64.759 43.6052H66.5641C66.8035 43.6052 67.0331 43.7003 67.2023 43.8695C67.3716 44.0388 67.4667 44.2684 67.4667 44.5077V46.3129C67.4667 46.5522 67.3716 46.7818 67.2023 46.9511C67.0331 47.1203 66.8035 47.2154 66.5641 47.2154H64.759C64.5196 47.2154 64.2901 47.1203 64.1208 46.9511C63.9515 46.7818 63.8564 46.5522 63.8564 46.3129V44.5077Z" fill="black"/>
<path fill-rule="evenodd" clip-rule="evenodd" d="M61.1484 44.5077C61.1484 43.5502 61.5288 42.6319 62.2059 41.9549C62.8829 41.2778 63.8012 40.8975 64.7587 40.8975H66.5638C67.5213 40.8975 68.4396 41.2778 69.1167 41.9549C69.7937 42.6319 70.1741 43.5502 70.1741 44.5077V46.3128C70.1741 47.2703 69.7937 48.1886 69.1167 48.8657C68.4396 49.5427 67.5213 49.9231 66.5638 49.9231H64.7587C63.8012 49.9231 62.8829 49.5427 62.2059 48.8657C61.5288 48.1886 61.1484 47.2703 61.1484 46.3128V44.5077ZM65.6613 46.071C65.9354 45.9123 66.1632 45.6845 66.3219 45.4103C66.1632 45.1361 65.9354 44.9083 65.6613 44.7496C65.3871 44.9083 65.1593 45.1361 65.0006 45.4103C65.1594 45.6847 65.3869 45.9157 65.6613 46.071Z" fill="black"/>
<path d="M74.6875 44.5077C74.6875 44.2684 74.7826 44.0388 74.9519 43.8695C75.1211 43.7003 75.3507 43.6052 75.5901 43.6052H77.3952C77.6346 43.6052 77.8641 43.7003 78.0334 43.8695C78.2027 44.0388 78.2978 44.2684 78.2978 44.5077V46.3129C78.2978 46.5522 78.2027 46.7818 78.0334 46.9511C77.8641 47.1203 77.6346 47.2154 77.3952 47.2154H75.5901C75.3507 47.2154 75.1211 47.1203 74.9519 46.9511C74.7826 46.7818 74.6875 46.5522 74.6875 46.3129V44.5077Z" fill="black"/>
<path fill-rule="evenodd" clip-rule="evenodd" d="M71.9795 44.5077C71.9795 43.5502 72.3599 42.6319 73.0369 41.9549C73.714 41.2778 74.6322 40.8975 75.5897 40.8975H77.3949C78.3524 40.8975 79.2707 41.2778 79.9477 41.9549C80.6248 42.6319 81.0051 43.5502 81.0051 44.5077V46.3128C81.0051 47.2703 80.6248 48.1886 79.9477 48.8657C79.2707 49.5427 78.3524 49.9231 77.3949 49.9231H75.5897C74.6322 49.9231 73.714 49.5427 73.0369 48.8657C72.3599 48.1886 71.9795 47.2703 71.9795 46.3128V44.5077ZM76.4923 46.071C76.7665 45.9123 76.9943 45.6845 77.153 45.4103C76.9943 45.1361 76.7665 44.9083 76.4923 44.7496C76.2181 44.9083 75.9903 45.1361 75.8316 45.4103C75.9905 45.6847 76.2179 45.9157 76.4923 46.071Z" fill="black"/>
<path d="M36.7793 55.3385C36.7793 55.0991 36.8744 54.8695 37.0437 54.7003C37.2129 54.531 37.4425 54.4359 37.6819 54.4359H39.487C39.7264 54.4359 39.9559 54.531 40.1252 54.7003C40.2945 54.8695 40.3896 55.0991 40.3896 55.3385V57.1436C40.3896 57.383 40.2945 57.6126 40.1252 57.7818C39.9559 57.9511 39.7264 58.0462 39.487 58.0462H37.6819C37.4425 58.0462 37.2129 57.9511 37.0437 57.7818C36.8744 57.6126 36.7793 57.383 36.7793 57.1436V55.3385Z" fill="black"/>
<path fill-rule="evenodd" clip-rule="evenodd" d="M34.0713 55.3385C34.0713 54.381 34.4517 53.4627 35.1287 52.7857C35.8058 52.1086 36.724 51.7283 37.6815 51.7283H39.4867C40.4442 51.7283 41.3625 52.1086 42.0395 52.7857C42.7166 53.4627 43.0969 54.381 43.0969 55.3385V57.1437C43.0969 58.1012 42.7166 59.0194 42.0395 59.6965C41.3625 60.3735 40.4442 60.7539 39.4867 60.7539H37.6815C36.724 60.7539 35.8058 60.3735 35.1287 59.6965C34.4517 59.0194 34.0713 58.1012 34.0713 57.1437V55.3385ZM38.5841 56.9018C38.8583 56.7431 39.0861 56.5153 39.2448 56.2411C39.0861 55.9669 38.8583 55.7391 38.5841 55.5804C38.3099 55.7391 38.0821 55.9669 37.9234 56.2411C38.0823 56.5155 38.3097 56.7465 38.5841 56.9018Z" fill="black"/>
<path d="M47.6104 55.3385C47.6104 55.0991 47.7054 54.8695 47.8747 54.7003C48.044 54.531 48.2735 54.4359 48.5129 54.4359H50.318C50.5574 54.4359 50.787 54.531 50.9563 54.7003C51.1255 54.8695 51.2206 55.0991 51.2206 55.3385V57.1436C51.2206 57.383 51.1255 57.6126 50.9563 57.7818C50.787 57.9511 50.5574 58.0462 50.318 58.0462H48.5129C48.2735 58.0462 48.044 57.9511 47.8747 57.7818C47.7054 57.6126 47.6104 57.383 47.6104 57.1436V55.3385Z" fill="black"/>
<path fill-rule="evenodd" clip-rule="evenodd" d="M44.9023 55.3385C44.9023 54.381 45.2827 53.4627 45.9598 52.7857C46.6368 52.1086 47.5551 51.7283 48.5126 51.7283H50.3177C51.2752 51.7283 52.1935 52.1086 52.8706 52.7857C53.5476 53.4627 53.928 54.381 53.928 55.3385V57.1437C53.928 58.1012 53.5476 59.0194 52.8706 59.6965C52.1935 60.3735 51.2752 60.7539 50.3177 60.7539H48.5126C47.5551 60.7539 46.6368 60.3735 45.9598 59.6965C45.2827 59.0194 44.9023 58.1012 44.9023 57.1437V55.3385ZM49.4152 56.9018C49.6893 56.7431 49.9171 56.5153 50.0758 56.2411C49.9171 55.9669 49.6893 55.7391 49.4152 55.5804C49.141 55.7391 48.9132 55.9669 48.7545 56.2411C48.9133 56.5155 49.1408 56.7465 49.4152 56.9018Z" fill="black"/>
<path d="M58.4404 55.3385C58.4404 55.0991 58.5355 54.8695 58.7048 54.7003C58.874 54.531 59.1036 54.4359 59.343 54.4359H61.1481C61.3875 54.4359 61.6171 54.531 61.7863 54.7003C61.9556 54.8695 62.0507 55.0991 62.0507 55.3385V57.1436C62.0507 57.383 61.9556 57.6126 61.7863 57.7818C61.6171 57.9511 61.3875 58.0462 61.1481 58.0462H59.343C59.1036 58.0462 58.874 57.9511 58.7048 57.7818C58.5355 57.6126 58.4404 57.383 58.4404 57.1436V55.3385Z" fill="black"/>
<path fill-rule="evenodd" clip-rule="evenodd" d="M55.7334 55.3385C55.7334 54.381 56.1138 53.4627 56.7908 52.7857C57.4679 52.1086 58.3862 51.7283 59.3437 51.7283H61.1488C62.1063 51.7283 63.0246 52.1086 63.7016 52.7857C64.3787 53.4627 64.759 54.381 64.759 55.3385V57.1437C64.759 58.1012 64.3787 59.0194 63.7016 59.6965C63.0246 60.3735 62.1063 60.7539 61.1488 60.7539H59.3437C58.3862 60.7539 57.4679 60.3735 56.7908 59.6965C56.1138 59.0194 55.7334 58.1012 55.7334 57.1437V55.3385ZM60.2462 56.9018C60.5204 56.7431 60.7482 56.5153 60.9069 56.2411C60.7482 55.9669 60.5204 55.7391 60.2462 55.5804C59.972 55.7391 59.7442 55.9669 59.5855 56.2411C59.7444 56.5155 59.9718 56.7465 60.2462 56.9018Z" fill="black"/>
<path d="M69.2715 55.3385C69.2715 55.0991 69.3666 54.8695 69.5358 54.7003C69.7051 54.531 69.9347 54.4359 70.174 54.4359H71.9792C72.2186 54.4359 72.4481 54.531 72.6174 54.7003C72.7867 54.8695 72.8817 55.0991 72.8817 55.3385V57.1436C72.8817 57.383 72.7867 57.6126 72.6174 57.7818C72.4481 57.9511 72.2186 58.0462 71.9792 58.0462H70.174C69.9347 58.0462 69.7051 57.9511 69.5358 57.7818C69.3666 57.6126 69.2715 57.383 69.2715 57.1436V55.3385Z" fill="black"/>
<path fill-rule="evenodd" clip-rule="evenodd" d="M66.564 55.3385C66.564 54.381 66.9444 53.4627 67.6214 52.7857C68.2985 52.1086 69.2168 51.7283 70.1743 51.7283H71.9794C72.9369 51.7283 73.8552 52.1086 74.5322 52.7857C75.2093 53.4627 75.5896 54.381 75.5896 55.3385V57.1437C75.5896 58.1012 75.2093 59.0194 74.5322 59.6965C73.8552 60.3735 72.9369 60.7539 71.9794 60.7539H70.1743C69.2168 60.7539 68.2985 60.3735 67.6214 59.6965C66.9444 59.0194 66.564 58.1012 66.564 57.1437V55.3385ZM71.0768 56.9018C71.351 56.7431 71.5788 56.5153 71.7375 56.2411C71.5788 55.9669 71.351 55.7391 71.0768 55.5804C70.8026 55.7391 70.5749 55.9669 70.4162 56.2411C70.575 56.5155 70.8024 56.7465 71.0768 56.9018ZM40.3896 66.1693C40.3896 65.4512 40.6749 64.7625 41.1827 64.2547C41.6905 63.7469 42.3792 63.4616 43.0973 63.4616H66.564C67.2821 63.4616 67.9708 63.7469 68.4786 64.2547C68.9864 64.7625 69.2717 65.4512 69.2717 66.1693V67.9744C69.2717 68.6926 68.9864 69.3813 68.4786 69.8891C67.9708 70.3968 67.2821 70.6821 66.564 70.6821H43.0973C42.3792 70.6821 41.6905 70.3968 41.1827 69.8891C40.6749 69.3813 40.3896 68.6926 40.3896 67.9744V66.1693Z" fill="black"/>
</svg>
