<svg width="110" height="110" viewBox="0 0 110 110" fill="none" xmlns="http://www.w3.org/2000/svg">
<path fill-rule="evenodd" clip-rule="evenodd" d="M62.0286 22.4158C62.4815 22.5709 62.8543 22.8995 63.0649 23.3294C63.2755 23.7594 63.3067 24.2554 63.1516 24.7083L61.871 28.4484C61.2707 30.2011 60.2923 31.8004 59.0052 33.1329C57.718 34.4655 56.1535 35.4987 54.4226 36.1593L45.9935 39.3788C45.5494 39.5364 45.0612 39.514 44.6334 39.3164C44.2056 39.1189 43.8719 38.7619 43.7038 38.3216C43.5356 37.8814 43.5463 37.3929 43.7335 36.9604C43.9207 36.528 44.2696 36.1858 44.7057 36.0072L53.1348 32.7877C54.3714 32.3157 55.489 31.5776 56.4084 30.6256C57.3279 29.6736 58.0268 28.5311 58.4555 27.2789L59.7361 23.5388C59.8911 23.0859 60.2198 22.7131 60.6497 22.5025C61.0797 22.2919 61.5757 22.2607 62.0286 22.4158Z" fill="black"/>
<path d="M23.241 42.7026C23.241 40.7876 24.0018 38.951 25.3559 37.5969C26.71 36.2428 28.5465 35.4821 30.4615 35.4821H81.0051C82.9201 35.4821 84.7567 36.2428 86.1108 37.5969C87.4649 38.951 88.2256 40.7876 88.2256 42.7026V71.5846C88.2256 73.4996 87.4649 75.3362 86.1108 76.6903C84.7567 78.0444 82.9201 78.8051 81.0051 78.8051H30.4615C28.5465 78.8051 26.71 78.0444 25.3559 76.6903C24.0018 75.3362 23.241 73.4996 23.241 71.5846V42.7026Z" fill="white"/>
<path fill-rule="evenodd" clip-rule="evenodd" d="M81.0051 42.7026H30.4615V71.5846H81.0051V42.7026ZM30.4615 35.4821C28.5465 35.4821 26.71 36.2428 25.3559 37.5969C24.0018 38.951 23.241 40.7876 23.241 42.7026V71.5846C23.241 73.4996 24.0018 75.3362 25.3559 76.6903C26.71 78.0444 28.5465 78.8051 30.4615 78.8051H81.0051C82.9201 78.8051 84.7567 78.0444 86.1108 76.6903C87.4649 75.3362 88.2256 73.4996 88.2256 71.5846V42.7026C88.2256 40.7876 87.4649 38.951 86.1108 37.5969C84.7567 36.2428 82.9201 35.4821 81.0051 35.4821H30.4615Z" fill="white"/>
<path d="M26.8513 45.4102C26.8513 43.7346 27.5486 42.1276 28.7899 40.9428C30.0311 39.7579 31.7146 39.0923 33.4701 39.0923H79.8017C81.5571 39.0923 83.2406 39.7579 84.4819 40.9428C85.7231 42.1276 86.4205 43.7346 86.4205 45.4102V70.682C86.4205 72.3577 85.7231 73.9646 84.4819 75.1495C83.2406 76.3343 81.5571 77 79.8017 77H33.4701C31.7146 77 30.0311 76.3343 28.7899 75.1495C27.5486 73.9646 26.8513 72.3577 26.8513 70.682V45.4102Z" fill="#F4F1C1"/>
<path fill-rule="evenodd" clip-rule="evenodd" d="M79.8017 45.4102H33.4701V70.682H79.8017V45.4102ZM33.4701 39.0923C31.7146 39.0923 30.0311 39.7579 28.7899 40.9428C27.5486 42.1276 26.8513 43.7346 26.8513 45.4102V70.682C26.8513 72.3577 27.5486 73.9646 28.7899 75.1495C30.0311 76.3343 31.7146 77 33.4701 77H79.8017C81.5571 77 83.2406 76.3343 84.4819 75.1495C85.7231 73.9646 86.4205 72.3577 86.4205 70.682V45.4102C86.4205 43.7346 85.7231 42.1276 84.4819 40.9428C83.2406 39.7579 81.5571 39.0923 79.8017 39.0923H33.4701Z" fill="#F4F1C1"/>
<path fill-rule="evenodd" clip-rule="evenodd" d="M20.5333 41.8C20.5333 39.4062 21.4842 37.1105 23.1769 35.4179C24.8695 33.7253 27.1652 32.7744 29.559 32.7744H80.1026C82.4963 32.7744 84.792 33.7253 86.4846 35.4179C88.1773 37.1105 89.1282 39.4062 89.1282 41.8V70.682C89.1282 73.0758 88.1773 75.3715 86.4846 77.0641C84.792 78.7568 82.4963 79.7077 80.1026 79.7077H29.559C27.1652 79.7077 24.8695 78.7568 23.1769 77.0641C21.4842 75.3715 20.5333 73.0758 20.5333 70.682V41.8ZM29.559 36.3846C28.1227 36.3846 26.7453 36.9552 25.7297 37.9707C24.7141 38.9863 24.1436 40.3637 24.1436 41.8V70.682C24.1436 72.1183 24.7141 73.4957 25.7297 74.5113C26.7453 75.5269 28.1227 76.0974 29.559 76.0974H80.1026C81.5388 76.0974 82.9162 75.5269 83.9318 74.5113C84.9474 73.4957 85.5179 72.1183 85.5179 70.682V41.8C85.5179 40.3637 84.9474 38.9863 83.9318 37.9707C82.9162 36.9552 81.5388 36.3846 80.1026 36.3846H29.559Z" fill="black"/>
<path d="M31.3641 44.5077C31.3641 44.2683 31.4592 44.0387 31.6284 43.8695C31.7977 43.7002 32.0273 43.6051 32.2666 43.6051H34.0718C34.3111 43.6051 34.5407 43.7002 34.71 43.8695C34.8792 44.0387 34.9743 44.2683 34.9743 44.5077V46.3128C34.9743 46.5522 34.8792 46.7817 34.71 46.951C34.5407 47.1203 34.3111 47.2154 34.0718 47.2154H32.2666C32.0273 47.2154 31.7977 47.1203 31.6284 46.951C31.4592 46.7817 31.3641 46.5522 31.3641 46.3128V44.5077Z" fill="black"/>
<path fill-rule="evenodd" clip-rule="evenodd" d="M28.6564 44.5077C28.6564 43.5502 29.0367 42.6319 29.7138 41.9549C30.3908 41.2778 31.3091 40.8975 32.2666 40.8975H34.0718C35.0293 40.8975 35.9475 41.2778 36.6246 41.9549C37.3016 42.6319 37.682 43.5502 37.682 44.5077V46.3128C37.682 47.2703 37.3016 48.1886 36.6246 48.8657C35.9475 49.5427 35.0293 49.9231 34.0718 49.9231H32.2666C31.3091 49.9231 30.3908 49.5427 29.7138 48.8657C29.0367 48.1886 28.6564 47.2703 28.6564 46.3128V44.5077ZM33.1692 46.071C33.4434 45.9123 33.6712 45.6845 33.8299 45.4103C33.6712 45.1361 33.4434 44.9083 33.1692 44.7496C32.895 44.9083 32.6672 45.1361 32.5085 45.4103C32.6674 45.6847 32.8948 45.9157 33.1692 46.071Z" fill="black"/>
<path d="M42.1949 44.5077C42.1949 44.2683 42.29 44.0387 42.4592 43.8695C42.6285 43.7002 42.8581 43.6051 43.0974 43.6051H44.9026C45.142 43.6051 45.3715 43.7002 45.5408 43.8695C45.7101 44.0387 45.8051 44.2683 45.8051 44.5077V46.3128C45.8051 46.5522 45.7101 46.7817 45.5408 46.951C45.3715 47.1203 45.142 47.2154 44.9026 47.2154H43.0974C42.8581 47.2154 42.6285 47.1203 42.4592 46.951C42.29 46.7817 42.1949 46.5522 42.1949 46.3128V44.5077Z" fill="black"/>
<path fill-rule="evenodd" clip-rule="evenodd" d="M39.4872 44.5077C39.4872 43.5502 39.8675 42.6319 40.5446 41.9549C41.2217 41.2778 42.1399 40.8975 43.0974 40.8975H44.9026C45.8601 40.8975 46.7783 41.2778 47.4554 41.9549C48.1325 42.6319 48.5128 43.5502 48.5128 44.5077V46.3128C48.5128 47.2703 48.1325 48.1886 47.4554 48.8657C46.7783 49.5427 45.8601 49.9231 44.9026 49.9231H43.0974C42.1399 49.9231 41.2217 49.5427 40.5446 48.8657C39.8675 48.1886 39.4872 47.2703 39.4872 46.3128V44.5077ZM44 46.071C44.2742 45.9123 44.502 45.6845 44.6607 45.4103C44.502 45.1361 44.2742 44.9083 44 44.7496C43.7258 44.9083 43.498 45.1361 43.3393 45.4103C43.4982 45.6847 43.7256 45.9157 44 46.071Z" fill="black"/>
<path d="M53.0256 44.5077C53.0256 44.2683 53.1207 44.0387 53.29 43.8695C53.4593 43.7002 53.6888 43.6051 53.9282 43.6051H55.7333C55.9727 43.6051 56.2023 43.7002 56.3715 43.8695C56.5408 44.0387 56.6359 44.2683 56.6359 44.5077V46.3128C56.6359 46.5522 56.5408 46.7817 56.3715 46.951C56.2023 47.1203 55.9727 47.2154 55.7333 47.2154H53.9282C53.6888 47.2154 53.4593 47.1203 53.29 46.951C53.1207 46.7817 53.0256 46.5522 53.0256 46.3128V44.5077Z" fill="black"/>
<path fill-rule="evenodd" clip-rule="evenodd" d="M50.3179 44.5077C50.3179 43.5502 50.6983 42.6319 51.3754 41.9549C52.0524 41.2778 52.9707 40.8975 53.9282 40.8975H55.7333C56.6908 40.8975 57.6091 41.2778 58.2862 41.9549C58.9632 42.6319 59.3436 43.5502 59.3436 44.5077V46.3128C59.3436 47.2703 58.9632 48.1886 58.2862 48.8657C57.6091 49.5427 56.6908 49.9231 55.7333 49.9231H53.9282C52.9707 49.9231 52.0524 49.5427 51.3754 48.8657C50.6983 48.1886 50.3179 47.2703 50.3179 46.3128V44.5077ZM54.8308 46.071C55.1049 45.9123 55.3327 45.6845 55.4914 45.4103C55.3327 45.1361 55.1049 44.9083 54.8308 44.7496C54.5566 44.9083 54.3288 45.1361 54.1701 45.4103C54.3289 45.6847 54.5564 45.9157 54.8308 46.071Z" fill="black"/>
<path d="M63.8564 44.5077C63.8564 44.2683 63.9515 44.0387 64.1207 43.8695C64.29 43.7002 64.5196 43.6051 64.7589 43.6051H66.5641C66.8035 43.6051 67.033 43.7002 67.2023 43.8695C67.3716 44.0387 67.4666 44.2683 67.4666 44.5077V46.3128C67.4666 46.5522 67.3716 46.7817 67.2023 46.951C67.033 47.1203 66.8035 47.2154 66.5641 47.2154H64.7589C64.5196 47.2154 64.29 47.1203 64.1207 46.951C63.9515 46.7817 63.8564 46.5522 63.8564 46.3128V44.5077Z" fill="black"/>
<path fill-rule="evenodd" clip-rule="evenodd" d="M61.1487 44.5077C61.1487 43.5502 61.529 42.6319 62.2061 41.9549C62.8832 41.2778 63.8014 40.8975 64.7589 40.8975H66.5641C67.5216 40.8975 68.4398 41.2778 69.1169 41.9549C69.794 42.6319 70.1743 43.5502 70.1743 44.5077V46.3128C70.1743 47.2703 69.794 48.1886 69.1169 48.8657C68.4398 49.5427 67.5216 49.9231 66.5641 49.9231H64.7589C63.8014 49.9231 62.8832 49.5427 62.2061 48.8657C61.529 48.1886 61.1487 47.2703 61.1487 46.3128V44.5077ZM65.6615 46.071C65.9357 45.9123 66.1635 45.6845 66.3222 45.4103C66.1635 45.1361 65.9357 44.9083 65.6615 44.7496C65.3873 44.9083 65.1595 45.1361 65.0008 45.4103C65.1597 45.6847 65.3871 45.9157 65.6615 46.071Z" fill="black"/>
<path d="M74.6872 44.5077C74.6872 44.2683 74.7823 44.0387 74.9515 43.8695C75.1208 43.7002 75.3504 43.6051 75.5898 43.6051H77.3949C77.6343 43.6051 77.8638 43.7002 78.0331 43.8695C78.2024 44.0387 78.2975 44.2683 78.2975 44.5077V46.3128C78.2975 46.5522 78.2024 46.7817 78.0331 46.951C77.8638 47.1203 77.6343 47.2154 77.3949 47.2154H75.5898C75.3504 47.2154 75.1208 47.1203 74.9515 46.951C74.7823 46.7817 74.6872 46.5522 74.6872 46.3128V44.5077Z" fill="black"/>
<path fill-rule="evenodd" clip-rule="evenodd" d="M71.9795 44.5077C71.9795 43.5502 72.3599 42.6319 73.0369 41.9549C73.714 41.2778 74.6322 40.8975 75.5897 40.8975H77.3949C78.3524 40.8975 79.2707 41.2778 79.9477 41.9549C80.6248 42.6319 81.0051 43.5502 81.0051 44.5077V46.3128C81.0051 47.2703 80.6248 48.1886 79.9477 48.8657C79.2707 49.5427 78.3524 49.9231 77.3949 49.9231H75.5897C74.6322 49.9231 73.714 49.5427 73.0369 48.8657C72.3599 48.1886 71.9795 47.2703 71.9795 46.3128V44.5077ZM76.4923 46.071C76.7665 45.9123 76.9943 45.6845 77.153 45.4103C76.9943 45.1361 76.7665 44.9083 76.4923 44.7496C76.2181 44.9083 75.9903 45.1361 75.8316 45.4103C75.9905 45.6847 76.2179 45.9157 76.4923 46.071Z" fill="black"/>
<path d="M36.7795 55.3385C36.7795 55.0991 36.8746 54.8695 37.0438 54.7003C37.2131 54.531 37.4427 54.4359 37.682 54.4359H39.4872C39.7265 54.4359 39.9561 54.531 40.1254 54.7003C40.2946 54.8695 40.3897 55.0991 40.3897 55.3385V57.1436C40.3897 57.383 40.2946 57.6126 40.1254 57.7818C39.9561 57.9511 39.7265 58.0462 39.4872 58.0462H37.682C37.4427 58.0462 37.2131 57.9511 37.0438 57.7818C36.8746 57.6126 36.7795 57.383 36.7795 57.1436V55.3385Z" fill="black"/>
<path fill-rule="evenodd" clip-rule="evenodd" d="M34.0718 55.3385C34.0718 54.381 34.4521 53.4627 35.1292 52.7856C35.8063 52.1086 36.7245 51.7282 37.682 51.7282H39.4872C40.4447 51.7282 41.3629 52.1086 42.04 52.7856C42.7171 53.4627 43.0974 54.381 43.0974 55.3385V57.1436C43.0974 58.1011 42.7171 59.0194 42.04 59.6964C41.3629 60.3735 40.4447 60.7539 39.4872 60.7539H37.682C36.7245 60.7539 35.8063 60.3735 35.1292 59.6964C34.4521 59.0194 34.0718 58.1011 34.0718 57.1436V55.3385ZM38.5846 56.9017C38.8588 56.743 39.0866 56.5152 39.2453 56.241C39.0866 55.9668 38.8588 55.7391 38.5846 55.5804C38.3104 55.7391 38.0826 55.9668 37.9239 56.241C38.0828 56.5154 38.3102 56.7465 38.5846 56.9017Z" fill="black"/>
<path d="M47.6102 55.3385C47.6102 55.0991 47.7053 54.8695 47.8746 54.7003C48.0438 54.531 48.2734 54.4359 48.5128 54.4359H50.3179C50.5573 54.4359 50.7869 54.531 50.9561 54.7003C51.1254 54.8695 51.2205 55.0991 51.2205 55.3385V57.1436C51.2205 57.383 51.1254 57.6126 50.9561 57.7818C50.7869 57.9511 50.5573 58.0462 50.3179 58.0462H48.5128C48.2734 58.0462 48.0438 57.9511 47.8746 57.7818C47.7053 57.6126 47.6102 57.383 47.6102 57.1436V55.3385Z" fill="black"/>
<path fill-rule="evenodd" clip-rule="evenodd" d="M44.9026 55.3385C44.9026 54.381 45.283 53.4627 45.96 52.7856C46.6371 52.1086 47.5553 51.7282 48.5128 51.7282H50.318C51.2755 51.7282 52.1938 52.1086 52.8708 52.7856C53.5479 53.4627 53.9282 54.381 53.9282 55.3385V57.1436C53.9282 58.1011 53.5479 59.0194 52.8708 59.6964C52.1938 60.3735 51.2755 60.7539 50.318 60.7539H48.5128C47.5553 60.7539 46.6371 60.3735 45.96 59.6964C45.283 59.0194 44.9026 58.1011 44.9026 57.1436V55.3385ZM49.4154 56.9017C49.6896 56.743 49.9174 56.5152 50.0761 56.241C49.9174 55.9668 49.6896 55.7391 49.4154 55.5804C49.1412 55.7391 48.9134 55.9668 48.7547 56.241C48.9136 56.5154 49.141 56.7465 49.4154 56.9017Z" fill="black"/>
<path d="M58.441 55.3385C58.441 55.0991 58.5361 54.8695 58.7054 54.7003C58.8747 54.531 59.1042 54.4359 59.3436 54.4359H61.1487C61.3881 54.4359 61.6177 54.531 61.7869 54.7003C61.9562 54.8695 62.0513 55.0991 62.0513 55.3385V57.1436C62.0513 57.383 61.9562 57.6126 61.7869 57.7818C61.6177 57.9511 61.3881 58.0462 61.1487 58.0462H59.3436C59.1042 58.0462 58.8747 57.9511 58.7054 57.7818C58.5361 57.6126 58.441 57.383 58.441 57.1436V55.3385Z" fill="black"/>
<path fill-rule="evenodd" clip-rule="evenodd" d="M55.7333 55.3385C55.7333 54.381 56.1137 53.4627 56.7908 52.7856C57.4678 52.1086 58.3861 51.7282 59.3436 51.7282H61.1487C62.1062 51.7282 63.0245 52.1086 63.7016 52.7856C64.3786 53.4627 64.759 54.381 64.759 55.3385V57.1436C64.759 58.1011 64.3786 59.0194 63.7016 59.6964C63.0245 60.3735 62.1062 60.7539 61.1487 60.7539H59.3436C58.3861 60.7539 57.4678 60.3735 56.7908 59.6964C56.1137 59.0194 55.7333 58.1011 55.7333 57.1436V55.3385ZM60.2462 56.9017C60.5203 56.743 60.7481 56.5152 60.9068 56.241C60.7481 55.9668 60.5203 55.7391 60.2462 55.5804C59.972 55.7391 59.7442 55.9668 59.5855 56.241C59.7443 56.5154 59.9718 56.7465 60.2462 56.9017Z" fill="black"/>
<path d="M69.2718 55.3385C69.2718 55.0991 69.3669 54.8695 69.5361 54.7003C69.7054 54.531 69.935 54.4359 70.1744 54.4359H71.9795C72.2189 54.4359 72.4484 54.531 72.6177 54.7003C72.787 54.8695 72.882 55.0991 72.882 55.3385V57.1436C72.882 57.383 72.787 57.6126 72.6177 57.7818C72.4484 57.9511 72.2189 58.0462 71.9795 58.0462H70.1744C69.935 58.0462 69.7054 57.9511 69.5361 57.7818C69.3669 57.6126 69.2718 57.383 69.2718 57.1436V55.3385Z" fill="black"/>
<path fill-rule="evenodd" clip-rule="evenodd" d="M66.5641 55.3385C66.5641 54.381 66.9444 53.4627 67.6215 52.7856C68.2985 52.1086 69.2168 51.7282 70.1743 51.7282H71.9795C72.937 51.7282 73.8552 52.1086 74.5323 52.7856C75.2093 53.4627 75.5897 54.381 75.5897 55.3385V57.1436C75.5897 58.1011 75.2093 59.0194 74.5323 59.6964C73.8552 60.3735 72.937 60.7539 71.9795 60.7539H70.1743C69.2168 60.7539 68.2985 60.3735 67.6215 59.6964C66.9444 59.0194 66.5641 58.1011 66.5641 57.1436V55.3385ZM71.0769 56.9017C71.3511 56.743 71.5789 56.5152 71.7376 56.241C71.5789 55.9668 71.3511 55.7391 71.0769 55.5804C70.8027 55.7391 70.5749 55.9668 70.4162 56.241C70.5751 56.5154 70.8025 56.7465 71.0769 56.9017ZM40.3897 66.1692C40.3897 65.4511 40.675 64.7624 41.1828 64.2546C41.6906 63.7468 42.3793 63.4615 43.0974 63.4615H66.5641C67.2822 63.4615 67.9709 63.7468 68.4787 64.2546C68.9865 64.7624 69.2718 65.4511 69.2718 66.1692V67.9744C69.2718 68.6925 68.9865 69.3812 68.4787 69.889C67.9709 70.3968 67.2822 70.6821 66.5641 70.6821H43.0974C42.3793 70.6821 41.6906 70.3968 41.1828 69.889C40.675 69.3812 40.3897 68.6925 40.3897 67.9744V66.1692Z" fill="black"/>
</svg>
