<svg width="150" height="172" viewBox="0 0 150 172" fill="none" xmlns="http://www.w3.org/2000/svg">
<g opacity="0.5" filter="url(#filter0_f_256_490)">
<circle cx="75" cy="105" r="55" fill="#F4F1C1"/>
</g>
<path fill-rule="evenodd" clip-rule="evenodd" d="M82.0285 72.4158C82.4815 72.5709 82.8543 72.8995 83.0649 73.3294C83.2755 73.7594 83.3067 74.2554 83.1516 74.7083L81.871 78.4484C81.2707 80.2011 80.2923 81.8004 79.0051 83.1329C77.7179 84.4655 76.1535 85.4987 74.4226 86.1593L65.9935 89.3788C65.5493 89.5364 65.0612 89.514 64.6333 89.3164C64.2055 89.1189 63.8719 88.7619 63.7037 88.3216C63.5356 87.8814 63.5462 87.3929 63.7335 86.9604C63.9207 86.528 64.2696 86.1858 64.7057 86.0072L73.1348 82.7877C74.3713 82.3157 75.4889 81.5776 76.4084 80.6256C77.3278 79.6736 78.0267 78.5311 78.4554 77.2789L79.736 73.5388C79.8911 73.0859 80.2197 72.7131 80.6497 72.5025C81.0796 72.2919 81.5756 72.2607 82.0285 72.4158Z" fill="black"/>
<path d="M43.2407 92.7026C43.2407 90.7876 44.0015 88.951 45.3556 87.5969C46.7097 86.2428 48.5462 85.4821 50.4612 85.4821H101.005C102.92 85.4821 104.756 86.2428 106.111 87.5969C107.465 88.951 108.225 90.7876 108.225 92.7026V121.585C108.225 123.5 107.465 125.336 106.111 126.69C104.756 128.044 102.92 128.805 101.005 128.805H50.4612C48.5462 128.805 46.7097 128.044 45.3556 126.69C44.0015 125.336 43.2407 123.5 43.2407 121.585V92.7026Z" fill="white"/>
<path fill-rule="evenodd" clip-rule="evenodd" d="M101.005 92.7026H50.4612V121.585H101.005V92.7026ZM50.4612 85.4821C48.5462 85.4821 46.7097 86.2428 45.3556 87.5969C44.0015 88.951 43.2407 90.7876 43.2407 92.7026V121.585C43.2407 123.5 44.0015 125.336 45.3556 126.69C46.7097 128.044 48.5462 128.805 50.4612 128.805H101.005C102.92 128.805 104.756 128.044 106.111 126.69C107.465 125.336 108.225 123.5 108.225 121.585V92.7026C108.225 90.7876 107.465 88.951 106.111 87.5969C104.756 86.2428 102.92 85.4821 101.005 85.4821H50.4612Z" fill="white"/>
<path d="M46.8511 95.4102C46.8511 93.7346 47.5484 92.1276 48.7897 90.9428C50.0309 89.7579 51.7145 89.0923 53.4699 89.0923H99.8015C101.557 89.0923 103.24 89.7579 104.482 90.9428C105.723 92.1276 106.42 93.7346 106.42 95.4102V120.682C106.42 122.358 105.723 123.965 104.482 125.149C103.24 126.334 101.557 127 99.8015 127H53.4699C51.7145 127 50.0309 126.334 48.7897 125.149C47.5484 123.965 46.8511 122.358 46.8511 120.682V95.4102Z" fill="#A6D981"/>
<path fill-rule="evenodd" clip-rule="evenodd" d="M99.8015 95.4102H53.4699V120.682H99.8015V95.4102ZM53.4699 89.0923C51.7145 89.0923 50.0309 89.7579 48.7897 90.9428C47.5484 92.1276 46.8511 93.7346 46.8511 95.4102V120.682C46.8511 122.358 47.5484 123.965 48.7897 125.149C50.0309 126.334 51.7145 127 53.4699 127H99.8015C101.557 127 103.24 126.334 104.482 125.149C105.723 123.965 106.42 122.358 106.42 120.682V95.4102C106.42 93.7346 105.723 92.1276 104.482 90.9428C103.24 89.7579 101.557 89.0923 99.8015 89.0923H53.4699Z" fill="#A6D981"/>
<path fill-rule="evenodd" clip-rule="evenodd" d="M40.5332 91.8C40.5332 89.4062 41.4841 87.1105 43.1768 85.4179C44.8694 83.7253 47.1651 82.7744 49.5588 82.7744H100.102C102.496 82.7744 104.792 83.7253 106.485 85.4179C108.177 87.1105 109.128 89.4062 109.128 91.8V120.682C109.128 123.076 108.177 125.372 106.485 127.064C104.792 128.757 102.496 129.708 100.102 129.708H49.5588C47.1651 129.708 44.8694 128.757 43.1768 127.064C41.4841 125.372 40.5332 123.076 40.5332 120.682V91.8ZM49.5588 86.3846C48.1226 86.3846 46.7452 86.9552 45.7296 87.9707C44.714 88.9863 44.1435 90.3637 44.1435 91.8V120.682C44.1435 122.118 44.714 123.496 45.7296 124.511C46.7452 125.527 48.1226 126.097 49.5588 126.097H100.102C101.539 126.097 102.916 125.527 103.932 124.511C104.947 123.496 105.518 122.118 105.518 120.682V91.8C105.518 90.3637 104.947 88.9863 103.932 87.9707C102.916 86.9552 101.539 86.3846 100.102 86.3846H49.5588Z" fill="black"/>
<path d="M51.3638 94.5077C51.3638 94.2683 51.4589 94.0387 51.6281 93.8695C51.7974 93.7002 52.027 93.6051 52.2663 93.6051H54.0715C54.3108 93.6051 54.5404 93.7002 54.7097 93.8695C54.8789 94.0387 54.974 94.2683 54.974 94.5077V96.3128C54.974 96.5522 54.8789 96.7817 54.7097 96.951C54.5404 97.1203 54.3108 97.2154 54.0715 97.2154H52.2663C52.027 97.2154 51.7974 97.1203 51.6281 96.951C51.4589 96.7817 51.3638 96.5522 51.3638 96.3128V94.5077Z" fill="black"/>
<path fill-rule="evenodd" clip-rule="evenodd" d="M48.6562 94.5077C48.6562 93.5502 49.0366 92.6319 49.7137 91.9549C50.3907 91.2778 51.309 90.8975 52.2665 90.8975H54.0716C55.0291 90.8975 55.9474 91.2778 56.6245 91.9549C57.3015 92.6319 57.6819 93.5502 57.6819 94.5077V96.3128C57.6819 97.2703 57.3015 98.1886 56.6245 98.8657C55.9474 99.5427 55.0291 99.9231 54.0716 99.9231H52.2665C51.309 99.9231 50.3907 99.5427 49.7137 98.8657C49.0366 98.1886 48.6562 97.2703 48.6562 96.3128V94.5077ZM53.1691 96.071C53.4433 95.9123 53.6711 95.6845 53.8297 95.4103C53.6711 95.1361 53.4433 94.9083 53.1691 94.7496C52.8949 94.9083 52.6671 95.1361 52.5084 95.4103C52.6672 95.6847 52.8947 95.9157 53.1691 96.071Z" fill="black"/>
<path d="M62.1948 94.5077C62.1948 94.2683 62.2899 94.0387 62.4592 93.8695C62.6284 93.7002 62.858 93.6051 63.0974 93.6051H64.9025C65.1419 93.6051 65.3715 93.7002 65.5407 93.8695C65.71 94.0387 65.8051 94.2683 65.8051 94.5077V96.3128C65.8051 96.5522 65.71 96.7817 65.5407 96.951C65.3715 97.1203 65.1419 97.2154 64.9025 97.2154H63.0974C62.858 97.2154 62.6284 97.1203 62.4592 96.951C62.2899 96.7817 62.1948 96.5522 62.1948 96.3128V94.5077Z" fill="black"/>
<path fill-rule="evenodd" clip-rule="evenodd" d="M59.4868 94.5077C59.4868 93.5502 59.8672 92.6319 60.5442 91.9549C61.2213 91.2778 62.1396 90.8975 63.0971 90.8975H64.9022C65.8597 90.8975 66.778 91.2778 67.455 91.9549C68.1321 92.6319 68.5125 93.5502 68.5125 94.5077V96.3128C68.5125 97.2703 68.1321 98.1886 67.455 98.8657C66.778 99.5427 65.8597 99.9231 64.9022 99.9231H63.0971C62.1396 99.9231 61.2213 99.5427 60.5442 98.8657C59.8672 98.1886 59.4868 97.2703 59.4868 96.3128V94.5077ZM63.9996 96.071C64.2738 95.9123 64.5016 95.6845 64.6603 95.4103C64.5016 95.1361 64.2738 94.9083 63.9996 94.7496C63.7255 94.9083 63.4977 95.1361 63.339 95.4103C63.4978 95.6847 63.7253 95.9157 63.9996 96.071Z" fill="black"/>
<path d="M73.0254 94.5077C73.0254 94.2683 73.1205 94.0387 73.2897 93.8695C73.459 93.7002 73.6886 93.6051 73.928 93.6051H75.7331C75.9725 93.6051 76.202 93.7002 76.3713 93.8695C76.5406 94.0387 76.6356 94.2683 76.6356 94.5077V96.3128C76.6356 96.5522 76.5406 96.7817 76.3713 96.951C76.202 97.1203 75.9725 97.2154 75.7331 97.2154H73.928C73.6886 97.2154 73.459 97.1203 73.2897 96.951C73.1205 96.7817 73.0254 96.5522 73.0254 96.3128V94.5077Z" fill="black"/>
<path fill-rule="evenodd" clip-rule="evenodd" d="M70.3179 94.5077C70.3179 93.5502 70.6982 92.6319 71.3753 91.9549C72.0523 91.2778 72.9706 90.8975 73.9281 90.8975H75.7333C76.6908 90.8975 77.609 91.2778 78.2861 91.9549C78.9631 92.6319 79.3435 93.5502 79.3435 94.5077V96.3128C79.3435 97.2703 78.9631 98.1886 78.2861 98.8657C77.609 99.5427 76.6908 99.9231 75.7333 99.9231H73.9281C72.9706 99.9231 72.0523 99.5427 71.3753 98.8657C70.6982 98.1886 70.3179 97.2703 70.3179 96.3128V94.5077ZM74.8307 96.071C75.1049 95.9123 75.3327 95.6845 75.4914 95.4103C75.3327 95.1361 75.1049 94.9083 74.8307 94.7496C74.5565 94.9083 74.3287 95.1361 74.17 95.4103C74.3289 95.6847 74.5563 95.9157 74.8307 96.071Z" fill="black"/>
<path d="M83.8564 94.5077C83.8564 94.2683 83.9515 94.0387 84.1208 93.8695C84.2901 93.7002 84.5196 93.6051 84.759 93.6051H86.5641C86.8035 93.6051 87.0331 93.7002 87.2023 93.8695C87.3716 94.0387 87.4667 94.2683 87.4667 94.5077V96.3128C87.4667 96.5522 87.3716 96.7817 87.2023 96.951C87.0331 97.1203 86.8035 97.2154 86.5641 97.2154H84.759C84.5196 97.2154 84.2901 97.1203 84.1208 96.951C83.9515 96.7817 83.8564 96.5522 83.8564 96.3128V94.5077Z" fill="black"/>
<path fill-rule="evenodd" clip-rule="evenodd" d="M81.1484 94.5077C81.1484 93.5502 81.5288 92.6319 82.2059 91.9549C82.8829 91.2778 83.8012 90.8975 84.7587 90.8975H86.5638C87.5213 90.8975 88.4396 91.2778 89.1167 91.9549C89.7937 92.6319 90.1741 93.5502 90.1741 94.5077V96.3128C90.1741 97.2703 89.7937 98.1886 89.1167 98.8657C88.4396 99.5427 87.5213 99.9231 86.5638 99.9231H84.7587C83.8012 99.9231 82.8829 99.5427 82.2059 98.8657C81.5288 98.1886 81.1484 97.2703 81.1484 96.3128V94.5077ZM85.6613 96.071C85.9354 95.9123 86.1632 95.6845 86.3219 95.4103C86.1632 95.1361 85.9354 94.9083 85.6613 94.7496C85.3871 94.9083 85.1593 95.1361 85.0006 95.4103C85.1594 95.6847 85.3869 95.9157 85.6613 96.071Z" fill="black"/>
<path d="M94.687 94.5077C94.687 94.2683 94.7821 94.0387 94.9514 93.8695C95.1206 93.7002 95.3502 93.6051 95.5896 93.6051H97.3947C97.6341 93.6051 97.8637 93.7002 98.0329 93.8695C98.2022 94.0387 98.2973 94.2683 98.2973 94.5077V96.3128C98.2973 96.5522 98.2022 96.7817 98.0329 96.951C97.8637 97.1203 97.6341 97.2154 97.3947 97.2154H95.5896C95.3502 97.2154 95.1206 97.1203 94.9514 96.951C94.7821 96.7817 94.687 96.5522 94.687 96.3128V94.5077Z" fill="black"/>
<path fill-rule="evenodd" clip-rule="evenodd" d="M91.9795 94.5077C91.9795 93.5502 92.3599 92.6319 93.0369 91.9549C93.714 91.2778 94.6322 90.8975 95.5897 90.8975H97.3949C98.3524 90.8975 99.2707 91.2778 99.9477 91.9549C100.625 92.6319 101.005 93.5502 101.005 94.5077V96.3128C101.005 97.2703 100.625 98.1886 99.9477 98.8657C99.2707 99.5427 98.3524 99.9231 97.3949 99.9231H95.5897C94.6322 99.9231 93.714 99.5427 93.0369 98.8657C92.3599 98.1886 91.9795 97.2703 91.9795 96.3128V94.5077ZM96.4923 96.071C96.7665 95.9123 96.9943 95.6845 97.153 95.4103C96.9943 95.1361 96.7665 94.9083 96.4923 94.7496C96.2181 94.9083 95.9903 95.1361 95.8316 95.4103C95.9905 95.6847 96.2179 95.9157 96.4923 96.071Z" fill="black"/>
<path d="M56.7793 105.338C56.7793 105.099 56.8744 104.87 57.0437 104.7C57.2129 104.531 57.4425 104.436 57.6819 104.436H59.487C59.7264 104.436 59.9559 104.531 60.1252 104.7C60.2945 104.87 60.3896 105.099 60.3896 105.338V107.144C60.3896 107.383 60.2945 107.613 60.1252 107.782C59.9559 107.951 59.7264 108.046 59.487 108.046H57.6819C57.4425 108.046 57.2129 107.951 57.0437 107.782C56.8744 107.613 56.7793 107.383 56.7793 107.144V105.338Z" fill="black"/>
<path fill-rule="evenodd" clip-rule="evenodd" d="M54.0718 105.338C54.0718 104.381 54.4521 103.463 55.1292 102.786C55.8063 102.109 56.7245 101.728 57.682 101.728H59.4872C60.4447 101.728 61.3629 102.109 62.04 102.786C62.7171 103.463 63.0974 104.381 63.0974 105.338V107.144C63.0974 108.101 62.7171 109.019 62.04 109.696C61.3629 110.373 60.4447 110.754 59.4872 110.754H57.682C56.7245 110.754 55.8063 110.373 55.1292 109.696C54.4521 109.019 54.0718 108.101 54.0718 107.144V105.338ZM58.5846 106.902C58.8588 106.743 59.0866 106.515 59.2453 106.241C59.0866 105.967 58.8588 105.739 58.5846 105.58C58.3104 105.739 58.0826 105.967 57.9239 106.241C58.0828 106.515 58.3102 106.746 58.5846 106.902Z" fill="black"/>
<path d="M67.6104 105.338C67.6104 105.099 67.7054 104.87 67.8747 104.7C68.044 104.531 68.2735 104.436 68.5129 104.436H70.318C70.5574 104.436 70.787 104.531 70.9563 104.7C71.1255 104.87 71.2206 105.099 71.2206 105.338V107.144C71.2206 107.383 71.1255 107.613 70.9563 107.782C70.787 107.951 70.5574 108.046 70.318 108.046H68.5129C68.2735 108.046 68.044 107.951 67.8747 107.782C67.7054 107.613 67.6104 107.383 67.6104 107.144V105.338Z" fill="black"/>
<path fill-rule="evenodd" clip-rule="evenodd" d="M64.9023 105.338C64.9023 104.381 65.2827 103.463 65.9598 102.786C66.6368 102.109 67.5551 101.728 68.5126 101.728H70.3177C71.2752 101.728 72.1935 102.109 72.8706 102.786C73.5476 103.463 73.928 104.381 73.928 105.338V107.144C73.928 108.101 73.5476 109.019 72.8706 109.696C72.1935 110.373 71.2752 110.754 70.3177 110.754H68.5126C67.5551 110.754 66.6368 110.373 65.9598 109.696C65.2827 109.019 64.9023 108.101 64.9023 107.144V105.338ZM69.4152 106.902C69.6893 106.743 69.9171 106.515 70.0758 106.241C69.9171 105.967 69.6893 105.739 69.4152 105.58C69.141 105.739 68.9132 105.967 68.7545 106.241C68.9133 106.515 69.1408 106.746 69.4152 106.902Z" fill="black"/>
<path d="M78.4409 105.338C78.4409 105.099 78.536 104.87 78.7053 104.7C78.8745 104.531 79.1041 104.436 79.3435 104.436H81.1486C81.388 104.436 81.6176 104.531 81.7868 104.7C81.9561 104.87 82.0512 105.099 82.0512 105.338V107.144C82.0512 107.383 81.9561 107.613 81.7868 107.782C81.6176 107.951 81.388 108.046 81.1486 108.046H79.3435C79.1041 108.046 78.8745 107.951 78.7053 107.782C78.536 107.613 78.4409 107.383 78.4409 107.144V105.338Z" fill="black"/>
<path fill-rule="evenodd" clip-rule="evenodd" d="M75.7334 105.338C75.7334 104.381 76.1138 103.463 76.7908 102.786C77.4679 102.109 78.3862 101.728 79.3437 101.728H81.1488C82.1063 101.728 83.0246 102.109 83.7016 102.786C84.3787 103.463 84.759 104.381 84.759 105.338V107.144C84.759 108.101 84.3787 109.019 83.7016 109.696C83.0246 110.373 82.1063 110.754 81.1488 110.754H79.3437C78.3862 110.754 77.4679 110.373 76.7908 109.696C76.1138 109.019 75.7334 108.101 75.7334 107.144V105.338ZM80.2462 106.902C80.5204 106.743 80.7482 106.515 80.9069 106.241C80.7482 105.967 80.5204 105.739 80.2462 105.58C79.972 105.739 79.7442 105.967 79.5855 106.241C79.7444 106.515 79.9718 106.746 80.2462 106.902Z" fill="black"/>
<path d="M89.2715 105.338C89.2715 105.099 89.3666 104.87 89.5358 104.7C89.7051 104.531 89.9347 104.436 90.174 104.436H91.9792C92.2186 104.436 92.4481 104.531 92.6174 104.7C92.7867 104.87 92.8817 105.099 92.8817 105.338V107.144C92.8817 107.383 92.7867 107.613 92.6174 107.782C92.4481 107.951 92.2186 108.046 91.9792 108.046H90.174C89.9347 108.046 89.7051 107.951 89.5358 107.782C89.3666 107.613 89.2715 107.383 89.2715 107.144V105.338Z" fill="black"/>
<path fill-rule="evenodd" clip-rule="evenodd" d="M86.564 105.338C86.564 104.381 86.9444 103.463 87.6214 102.786C88.2985 102.109 89.2168 101.728 90.1743 101.728H91.9794C92.9369 101.728 93.8552 102.109 94.5322 102.786C95.2093 103.463 95.5896 104.381 95.5896 105.338V107.144C95.5896 108.101 95.2093 109.019 94.5322 109.696C93.8552 110.373 92.9369 110.754 91.9794 110.754H90.1743C89.2168 110.754 88.2985 110.373 87.6214 109.696C86.9444 109.019 86.564 108.101 86.564 107.144V105.338ZM91.0768 106.902C91.351 106.743 91.5788 106.515 91.7375 106.241C91.5788 105.967 91.351 105.739 91.0768 105.58C90.8026 105.739 90.5749 105.967 90.4162 106.241C90.575 106.515 90.8024 106.746 91.0768 106.902ZM60.3896 116.169C60.3896 115.451 60.6749 114.762 61.1827 114.255C61.6905 113.747 62.3792 113.462 63.0973 113.462H86.564C87.2821 113.462 87.9708 113.747 88.4786 114.255C88.9864 114.762 89.2717 115.451 89.2717 116.169V117.974C89.2717 118.692 88.9864 119.381 88.4786 119.889C87.9708 120.397 87.2821 120.682 86.564 120.682H63.0973C62.3792 120.682 61.6905 120.397 61.1827 119.889C60.6749 119.381 60.3896 118.692 60.3896 117.974V116.169Z" fill="black"/>
<defs>
<filter id="filter0_f_256_490" x="-30" y="0" width="210" height="210" filterUnits="userSpaceOnUse" color-interpolation-filters="sRGB">
<feFlood flood-opacity="0" result="BackgroundImageFix"/>
<feBlend mode="normal" in="SourceGraphic" in2="BackgroundImageFix" result="shape"/>
<feGaussianBlur stdDeviation="25" result="effect1_foregroundBlur_256_490"/>
</filter>
</defs>
</svg>
