<svg width="70" height="62" viewBox="0 0 70 62" fill="none" xmlns="http://www.w3.org/2000/svg">
<path fill-rule="evenodd" clip-rule="evenodd" d="M42.0285 4.41577C42.4815 4.57085 42.8543 4.89951 43.0649 5.32945C43.2755 5.75938 43.3067 6.25537 43.1516 6.70831L41.871 10.4484C41.2707 12.2011 40.2923 13.8004 39.0051 15.1329C37.7179 16.4655 36.1535 17.4987 34.4226 18.1593L25.9935 21.3788C25.5493 21.5364 25.0612 21.514 24.6333 21.3164C24.2055 21.1189 23.8719 20.7619 23.7037 20.3216C23.5356 19.8814 23.5462 19.3929 23.7335 18.9604C23.9207 18.528 24.2696 18.1858 24.7057 18.0072L33.1348 14.7877C34.3713 14.3157 35.4889 13.5776 36.4084 12.6256C37.3278 11.6736 38.0267 10.5311 38.4554 9.27888L39.736 5.53881C39.8911 5.08588 40.2197 4.7131 40.6497 4.50249C41.0796 4.29188 41.5756 4.26068 42.0285 4.41577Z" fill="black"/>
<path d="M3.24072 24.7026C3.24072 22.7876 4.00145 20.951 5.35556 19.5969C6.70967 18.2428 8.54624 17.4821 10.4612 17.4821H61.0048C62.9198 17.4821 64.7564 18.2428 66.1105 19.5969C67.4646 20.951 68.2253 22.7876 68.2253 24.7026V53.5846C68.2253 55.4996 67.4646 57.3362 66.1105 58.6903C64.7564 60.0444 62.9198 60.8051 61.0048 60.8051H10.4612C8.54624 60.8051 6.70967 60.0444 5.35556 58.6903C4.00145 57.3362 3.24072 55.4996 3.24072 53.5846V24.7026Z" fill="white"/>
<path fill-rule="evenodd" clip-rule="evenodd" d="M61.0048 24.7026H10.4612V53.5846H61.0048V24.7026ZM10.4612 17.4821C8.54624 17.4821 6.70967 18.2428 5.35556 19.5969C4.00145 20.951 3.24072 22.7876 3.24072 24.7026V53.5846C3.24072 55.4996 4.00145 57.3362 5.35556 58.6903C6.70967 60.0444 8.54624 60.8051 10.4612 60.8051H61.0048C62.9198 60.8051 64.7564 60.0444 66.1105 58.6903C67.4646 57.3362 68.2253 55.4996 68.2253 53.5846V24.7026C68.2253 22.7876 67.4646 20.951 66.1105 19.5969C64.7564 18.2428 62.9198 17.4821 61.0048 17.4821H10.4612Z" fill="white"/>
<path d="M6.85107 27.4102C6.85107 25.7346 7.54841 24.1276 8.78968 22.9428C10.0309 21.7579 11.7145 21.0923 13.4699 21.0923H59.8015C61.5569 21.0923 63.2404 21.7579 64.4817 22.9428C65.723 24.1276 66.4203 25.7346 66.4203 27.4102V52.682C66.4203 54.3577 65.723 55.9646 64.4817 57.1495C63.2404 58.3343 61.5569 59 59.8015 59H13.4699C11.7145 59 10.0309 58.3343 8.78968 57.1495C7.54841 55.9646 6.85107 54.3577 6.85107 52.682V27.4102Z" fill="#A6D981"/>
<path fill-rule="evenodd" clip-rule="evenodd" d="M59.8015 27.4102H13.4699V52.682H59.8015V27.4102ZM13.4699 21.0923C11.7145 21.0923 10.0309 21.7579 8.78968 22.9428C7.54841 24.1276 6.85107 25.7346 6.85107 27.4102V52.682C6.85107 54.3577 7.54841 55.9646 8.78968 57.1495C10.0309 58.3343 11.7145 59 13.4699 59H59.8015C61.5569 59 63.2404 58.3343 64.4817 57.1495C65.723 55.9646 66.4203 54.3577 66.4203 52.682V27.4102C66.4203 25.7346 65.723 24.1276 64.4817 22.9428C63.2404 21.7579 61.5569 21.0923 59.8015 21.0923H13.4699Z" fill="#A6D981"/>
<path fill-rule="evenodd" clip-rule="evenodd" d="M0.533203 23.8C0.533203 21.4062 1.48412 19.1105 3.17675 17.4179C4.86939 15.7253 7.1651 14.7744 9.55884 14.7744H60.1024C62.4962 14.7744 64.7919 15.7253 66.4845 17.4179C68.1772 19.1105 69.1281 21.4062 69.1281 23.8V52.682C69.1281 55.0758 68.1772 57.3715 66.4845 59.0641C64.7919 60.7568 62.4962 61.7077 60.1024 61.7077H9.55884C7.1651 61.7077 4.86939 60.7568 3.17675 59.0641C1.48412 57.3715 0.533203 55.0758 0.533203 52.682V23.8ZM9.55884 18.3846C8.12259 18.3846 6.74517 18.9552 5.72959 19.9707C4.71401 20.9863 4.14346 22.3637 4.14346 23.8V52.682C4.14346 54.1183 4.71401 55.4957 5.72959 56.5113C6.74517 57.5269 8.12259 58.0974 9.55884 58.0974H60.1024C61.5387 58.0974 62.9161 57.5269 63.9317 56.5113C64.9473 55.4957 65.5178 54.1183 65.5178 52.682V23.8C65.5178 22.3637 64.9473 20.9863 63.9317 19.9707C62.9161 18.9552 61.5387 18.3846 60.1024 18.3846H9.55884Z" fill="black"/>
<path d="M11.3638 26.5077C11.3638 26.2683 11.4589 26.0387 11.6281 25.8695C11.7974 25.7002 12.027 25.6051 12.2663 25.6051H14.0715C14.3108 25.6051 14.5404 25.7002 14.7097 25.8695C14.8789 26.0387 14.974 26.2683 14.974 26.5077V28.3128C14.974 28.5522 14.8789 28.7817 14.7097 28.951C14.5404 29.1203 14.3108 29.2154 14.0715 29.2154H12.2663C12.027 29.2154 11.7974 29.1203 11.6281 28.951C11.4589 28.7817 11.3638 28.5522 11.3638 28.3128V26.5077Z" fill="black"/>
<path fill-rule="evenodd" clip-rule="evenodd" d="M8.65625 26.5077C8.65625 25.5502 9.03662 24.6319 9.71367 23.9549C10.3907 23.2778 11.309 22.8975 12.2665 22.8975H14.0716C15.0291 22.8975 15.9474 23.2778 16.6245 23.9549C17.3015 24.6319 17.6819 25.5502 17.6819 26.5077V28.3128C17.6819 29.2703 17.3015 30.1886 16.6245 30.8657C15.9474 31.5427 15.0291 31.9231 14.0716 31.9231H12.2665C11.309 31.9231 10.3907 31.5427 9.71367 30.8657C9.03662 30.1886 8.65625 29.2703 8.65625 28.3128V26.5077ZM13.1691 28.071C13.4433 27.9123 13.6711 27.6845 13.8297 27.4103C13.6711 27.1361 13.4433 26.9083 13.1691 26.7496C12.8949 26.9083 12.6671 27.1361 12.5084 27.4103C12.6672 27.6847 12.8947 27.9157 13.1691 28.071Z" fill="black"/>
<path d="M22.1948 26.5077C22.1948 26.2683 22.2899 26.0387 22.4592 25.8695C22.6284 25.7002 22.858 25.6051 23.0974 25.6051H24.9025C25.1419 25.6051 25.3715 25.7002 25.5407 25.8695C25.71 26.0387 25.8051 26.2683 25.8051 26.5077V28.3128C25.8051 28.5522 25.71 28.7817 25.5407 28.951C25.3715 29.1203 25.1419 29.2154 24.9025 29.2154H23.0974C22.858 29.2154 22.6284 29.1203 22.4592 28.951C22.2899 28.7817 22.1948 28.5522 22.1948 28.3128V26.5077Z" fill="black"/>
<path fill-rule="evenodd" clip-rule="evenodd" d="M19.4868 26.5077C19.4868 25.5502 19.8672 24.6319 20.5442 23.9549C21.2213 23.2778 22.1396 22.8975 23.0971 22.8975H24.9022C25.8597 22.8975 26.778 23.2778 27.455 23.9549C28.1321 24.6319 28.5125 25.5502 28.5125 26.5077V28.3128C28.5125 29.2703 28.1321 30.1886 27.455 30.8657C26.778 31.5427 25.8597 31.9231 24.9022 31.9231H23.0971C22.1396 31.9231 21.2213 31.5427 20.5442 30.8657C19.8672 30.1886 19.4868 29.2703 19.4868 28.3128V26.5077ZM23.9996 28.071C24.2738 27.9123 24.5016 27.6845 24.6603 27.4103C24.5016 27.1361 24.2738 26.9083 23.9996 26.7496C23.7255 26.9083 23.4977 27.1361 23.339 27.4103C23.4978 27.6847 23.7253 27.9157 23.9996 28.071Z" fill="black"/>
<path d="M33.0254 26.5077C33.0254 26.2683 33.1205 26.0387 33.2897 25.8695C33.459 25.7002 33.6886 25.6051 33.928 25.6051H35.7331C35.9725 25.6051 36.202 25.7002 36.3713 25.8695C36.5406 26.0387 36.6356 26.2683 36.6356 26.5077V28.3128C36.6356 28.5522 36.5406 28.7817 36.3713 28.951C36.202 29.1203 35.9725 29.2154 35.7331 29.2154H33.928C33.6886 29.2154 33.459 29.1203 33.2897 28.951C33.1205 28.7817 33.0254 28.5522 33.0254 28.3128V26.5077Z" fill="black"/>
<path fill-rule="evenodd" clip-rule="evenodd" d="M30.3179 26.5077C30.3179 25.5502 30.6982 24.6319 31.3753 23.9549C32.0523 23.2778 32.9706 22.8975 33.9281 22.8975H35.7333C36.6908 22.8975 37.609 23.2778 38.2861 23.9549C38.9631 24.6319 39.3435 25.5502 39.3435 26.5077V28.3128C39.3435 29.2703 38.9631 30.1886 38.2861 30.8657C37.609 31.5427 36.6908 31.9231 35.7333 31.9231H33.9281C32.9706 31.9231 32.0523 31.5427 31.3753 30.8657C30.6982 30.1886 30.3179 29.2703 30.3179 28.3128V26.5077ZM34.8307 28.071C35.1049 27.9123 35.3327 27.6845 35.4914 27.4103C35.3327 27.1361 35.1049 26.9083 34.8307 26.7496C34.5565 26.9083 34.3287 27.1361 34.17 27.4103C34.3289 27.6847 34.5563 27.9157 34.8307 28.071Z" fill="black"/>
<path d="M43.8564 26.5077C43.8564 26.2683 43.9515 26.0387 44.1208 25.8695C44.2901 25.7002 44.5196 25.6051 44.759 25.6051H46.5641C46.8035 25.6051 47.0331 25.7002 47.2023 25.8695C47.3716 26.0387 47.4667 26.2683 47.4667 26.5077V28.3128C47.4667 28.5522 47.3716 28.7817 47.2023 28.951C47.0331 29.1203 46.8035 29.2154 46.5641 29.2154H44.759C44.5196 29.2154 44.2901 29.1203 44.1208 28.951C43.9515 28.7817 43.8564 28.5522 43.8564 28.3128V26.5077Z" fill="black"/>
<path fill-rule="evenodd" clip-rule="evenodd" d="M41.1484 26.5077C41.1484 25.5502 41.5288 24.6319 42.2059 23.9549C42.8829 23.2778 43.8012 22.8975 44.7587 22.8975H46.5638C47.5213 22.8975 48.4396 23.2778 49.1167 23.9549C49.7937 24.6319 50.1741 25.5502 50.1741 26.5077V28.3128C50.1741 29.2703 49.7937 30.1886 49.1167 30.8657C48.4396 31.5427 47.5213 31.9231 46.5638 31.9231H44.7587C43.8012 31.9231 42.8829 31.5427 42.2059 30.8657C41.5288 30.1886 41.1484 29.2703 41.1484 28.3128V26.5077ZM45.6613 28.071C45.9354 27.9123 46.1632 27.6845 46.3219 27.4103C46.1632 27.1361 45.9354 26.9083 45.6613 26.7496C45.3871 26.9083 45.1593 27.1361 45.0006 27.4103C45.1594 27.6847 45.3869 27.9157 45.6613 28.071Z" fill="black"/>
<path d="M54.687 26.5077C54.687 26.2683 54.7821 26.0387 54.9514 25.8695C55.1206 25.7002 55.3502 25.6051 55.5896 25.6051H57.3947C57.6341 25.6051 57.8637 25.7002 58.0329 25.8695C58.2022 26.0387 58.2973 26.2683 58.2973 26.5077V28.3128C58.2973 28.5522 58.2022 28.7817 58.0329 28.951C57.8637 29.1203 57.6341 29.2154 57.3947 29.2154H55.5896C55.3502 29.2154 55.1206 29.1203 54.9514 28.951C54.7821 28.7817 54.687 28.5522 54.687 28.3128V26.5077Z" fill="black"/>
<path fill-rule="evenodd" clip-rule="evenodd" d="M51.9795 26.5077C51.9795 25.5502 52.3599 24.6319 53.0369 23.9549C53.714 23.2778 54.6322 22.8975 55.5897 22.8975H57.3949C58.3524 22.8975 59.2707 23.2778 59.9477 23.9549C60.6248 24.6319 61.0051 25.5502 61.0051 26.5077V28.3128C61.0051 29.2703 60.6248 30.1886 59.9477 30.8657C59.2707 31.5427 58.3524 31.9231 57.3949 31.9231H55.5897C54.6322 31.9231 53.714 31.5427 53.0369 30.8657C52.3599 30.1886 51.9795 29.2703 51.9795 28.3128V26.5077ZM56.4923 28.071C56.7665 27.9123 56.9943 27.6845 57.153 27.4103C56.9943 27.1361 56.7665 26.9083 56.4923 26.7496C56.2181 26.9083 55.9903 27.1361 55.8316 27.4103C55.9905 27.6847 56.2179 27.9157 56.4923 28.071Z" fill="black"/>
<path d="M16.7793 37.3385C16.7793 37.0991 16.8744 36.8695 17.0437 36.7003C17.2129 36.531 17.4425 36.4359 17.6819 36.4359H19.487C19.7264 36.4359 19.9559 36.531 20.1252 36.7003C20.2945 36.8695 20.3896 37.0991 20.3896 37.3385V39.1436C20.3896 39.383 20.2945 39.6126 20.1252 39.7818C19.9559 39.9511 19.7264 40.0462 19.487 40.0462H17.6819C17.4425 40.0462 17.2129 39.9511 17.0437 39.7818C16.8744 39.6126 16.7793 39.383 16.7793 39.1436V37.3385Z" fill="black"/>
<path fill-rule="evenodd" clip-rule="evenodd" d="M14.0718 37.3385C14.0718 36.381 14.4521 35.4627 15.1292 34.7856C15.8063 34.1086 16.7245 33.7282 17.682 33.7282H19.4872C20.4447 33.7282 21.3629 34.1086 22.04 34.7856C22.7171 35.4627 23.0974 36.381 23.0974 37.3385V39.1436C23.0974 40.1011 22.7171 41.0194 22.04 41.6964C21.3629 42.3735 20.4447 42.7539 19.4872 42.7539H17.682C16.7245 42.7539 15.8063 42.3735 15.1292 41.6964C14.4521 41.0194 14.0718 40.1011 14.0718 39.1436V37.3385ZM18.5846 38.9017C18.8588 38.743 19.0866 38.5152 19.2453 38.241C19.0866 37.9668 18.8588 37.7391 18.5846 37.5804C18.3104 37.7391 18.0826 37.9668 17.9239 38.241C18.0828 38.5154 18.3102 38.7465 18.5846 38.9017Z" fill="black"/>
<path d="M27.6104 37.3385C27.6104 37.0991 27.7054 36.8695 27.8747 36.7003C28.044 36.531 28.2735 36.4359 28.5129 36.4359H30.318C30.5574 36.4359 30.787 36.531 30.9563 36.7003C31.1255 36.8695 31.2206 37.0991 31.2206 37.3385V39.1436C31.2206 39.383 31.1255 39.6126 30.9563 39.7818C30.787 39.9511 30.5574 40.0462 30.318 40.0462H28.5129C28.2735 40.0462 28.044 39.9511 27.8747 39.7818C27.7054 39.6126 27.6104 39.383 27.6104 39.1436V37.3385Z" fill="black"/>
<path fill-rule="evenodd" clip-rule="evenodd" d="M24.9023 37.3385C24.9023 36.381 25.2827 35.4627 25.9598 34.7856C26.6368 34.1086 27.5551 33.7282 28.5126 33.7282H30.3177C31.2752 33.7282 32.1935 34.1086 32.8706 34.7856C33.5476 35.4627 33.928 36.381 33.928 37.3385V39.1436C33.928 40.1011 33.5476 41.0194 32.8706 41.6964C32.1935 42.3735 31.2752 42.7539 30.3177 42.7539H28.5126C27.5551 42.7539 26.6368 42.3735 25.9598 41.6964C25.2827 41.0194 24.9023 40.1011 24.9023 39.1436V37.3385ZM29.4152 38.9017C29.6893 38.743 29.9171 38.5152 30.0758 38.241C29.9171 37.9668 29.6893 37.7391 29.4152 37.5804C29.141 37.7391 28.9132 37.9668 28.7545 38.241C28.9133 38.5154 29.1408 38.7465 29.4152 38.9017Z" fill="black"/>
<path d="M38.4409 37.3385C38.4409 37.0991 38.536 36.8695 38.7053 36.7003C38.8745 36.531 39.1041 36.4359 39.3435 36.4359H41.1486C41.388 36.4359 41.6176 36.531 41.7868 36.7003C41.9561 36.8695 42.0512 37.0991 42.0512 37.3385V39.1436C42.0512 39.383 41.9561 39.6126 41.7868 39.7818C41.6176 39.9511 41.388 40.0462 41.1486 40.0462H39.3435C39.1041 40.0462 38.8745 39.9511 38.7053 39.7818C38.536 39.6126 38.4409 39.383 38.4409 39.1436V37.3385Z" fill="black"/>
<path fill-rule="evenodd" clip-rule="evenodd" d="M35.7334 37.3385C35.7334 36.381 36.1138 35.4627 36.7908 34.7856C37.4679 34.1086 38.3862 33.7282 39.3437 33.7282H41.1488C42.1063 33.7282 43.0246 34.1086 43.7016 34.7856C44.3787 35.4627 44.759 36.381 44.759 37.3385V39.1436C44.759 40.1011 44.3787 41.0194 43.7016 41.6964C43.0246 42.3735 42.1063 42.7539 41.1488 42.7539H39.3437C38.3862 42.7539 37.4679 42.3735 36.7908 41.6964C36.1138 41.0194 35.7334 40.1011 35.7334 39.1436V37.3385ZM40.2462 38.9017C40.5204 38.743 40.7482 38.5152 40.9069 38.241C40.7482 37.9668 40.5204 37.7391 40.2462 37.5804C39.972 37.7391 39.7442 37.9668 39.5855 38.241C39.7444 38.5154 39.9718 38.7465 40.2462 38.9017Z" fill="black"/>
<path d="M49.2715 37.3385C49.2715 37.0991 49.3666 36.8695 49.5358 36.7003C49.7051 36.531 49.9347 36.4359 50.174 36.4359H51.9792C52.2186 36.4359 52.4481 36.531 52.6174 36.7003C52.7867 36.8695 52.8817 37.0991 52.8817 37.3385V39.1436C52.8817 39.383 52.7867 39.6126 52.6174 39.7818C52.4481 39.9511 52.2186 40.0462 51.9792 40.0462H50.174C49.9347 40.0462 49.7051 39.9511 49.5358 39.7818C49.3666 39.6126 49.2715 39.383 49.2715 39.1436V37.3385Z" fill="black"/>
<path fill-rule="evenodd" clip-rule="evenodd" d="M46.564 37.3385C46.564 36.381 46.9444 35.4627 47.6214 34.7856C48.2985 34.1086 49.2168 33.7282 50.1743 33.7282H51.9794C52.9369 33.7282 53.8552 34.1086 54.5322 34.7856C55.2093 35.4627 55.5896 36.381 55.5896 37.3385V39.1436C55.5896 40.1011 55.2093 41.0194 54.5322 41.6964C53.8552 42.3735 52.9369 42.7539 51.9794 42.7539H50.1743C49.2168 42.7539 48.2985 42.3735 47.6214 41.6964C46.9444 41.0194 46.564 40.1011 46.564 39.1436V37.3385ZM51.0768 38.9017C51.351 38.743 51.5788 38.5152 51.7375 38.241C51.5788 37.9668 51.351 37.7391 51.0768 37.5804C50.8026 37.7391 50.5749 37.9668 50.4162 38.241C50.575 38.5154 50.8024 38.7465 51.0768 38.9017ZM20.3896 48.1692C20.3896 47.4511 20.6749 46.7624 21.1827 46.2546C21.6905 45.7468 22.3792 45.4615 23.0973 45.4615H46.564C47.2821 45.4615 47.9708 45.7468 48.4786 46.2546C48.9864 46.7624 49.2717 47.4511 49.2717 48.1692V49.9744C49.2717 50.6925 48.9864 51.3812 48.4786 51.889C47.9708 52.3968 47.2821 52.6821 46.564 52.6821H23.0973C22.3792 52.6821 21.6905 52.3968 21.1827 51.889C20.6749 51.3812 20.3896 50.6925 20.3896 49.9744V48.1692Z" fill="black"/>
</svg>
