<svg width="192" height="192" viewBox="0 0 192 192" fill="none" xmlns="http://www.w3.org/2000/svg">
<path fill-rule="evenodd" clip-rule="evenodd" d="M108.268 39.1257C109.059 39.3964 109.709 39.9701 110.077 40.7205C110.445 41.471 110.499 42.3367 110.228 43.1273L107.993 49.6554C106.945 52.7147 105.238 55.5062 102.991 57.8321C100.744 60.158 98.0134 61.9614 94.9922 63.1145L80.2796 68.734C79.5044 69.009 78.6523 68.9699 77.9056 68.6251C77.1588 68.2803 76.5764 67.6571 76.2829 66.8887C75.9894 66.1203 76.0081 65.2676 76.3349 64.5128C76.6616 63.7579 77.2706 63.1608 78.0318 62.8489L92.7444 57.2294C94.9027 56.4057 96.8534 55.1173 98.4583 53.4556C100.063 51.794 101.283 49.7997 102.031 47.6141L104.267 41.086C104.537 40.2954 105.111 39.6447 105.861 39.2771C106.612 38.9095 107.478 38.855 108.268 39.1257Z" fill="black"/>
<path d="M40.5662 74.5357C40.5662 71.1931 41.894 67.9875 44.2575 65.624C46.6211 63.2604 49.8267 61.9326 53.1692 61.9326H141.391C144.733 61.9326 147.939 63.2604 150.302 65.624C152.666 67.9875 153.994 71.1931 153.994 74.5357V124.948C153.994 128.291 152.666 131.496 150.302 133.86C147.939 136.223 144.733 137.551 141.391 137.551H53.1692C49.8267 137.551 46.6211 136.223 44.2575 133.86C41.894 131.496 40.5662 128.291 40.5662 124.948V74.5357Z" fill="white"/>
<path fill-rule="evenodd" clip-rule="evenodd" d="M141.391 74.5357H53.1692V124.948H141.391V74.5357ZM53.1692 61.9326C49.8267 61.9326 46.6211 63.2604 44.2575 65.624C41.894 67.9875 40.5662 71.1931 40.5662 74.5357V124.948C40.5662 128.291 41.894 131.496 44.2575 133.86C46.6211 136.223 49.8267 137.551 53.1692 137.551H141.391C144.733 137.551 147.939 136.223 150.302 133.86C152.666 131.496 153.994 128.291 153.994 124.948V74.5357C153.994 71.1931 152.666 67.9875 150.302 65.624C147.939 63.2604 144.733 61.9326 141.391 61.9326H53.1692Z" fill="white"/>
<path d="M46.8677 79.2611C46.8677 76.3364 48.0848 73.5314 50.2514 71.4633C52.418 69.3952 55.3565 68.2334 58.4205 68.2334H139.29C142.354 68.2334 145.293 69.3952 147.459 71.4633C149.626 73.5314 150.843 76.3364 150.843 79.2611V123.372C150.843 126.297 149.626 129.102 147.459 131.17C145.293 133.238 142.354 134.4 139.29 134.4H58.4205C55.3565 134.4 52.418 133.238 50.2514 131.17C48.0848 129.102 46.8677 126.297 46.8677 123.372V79.2611Z" fill="#F4F1C1"/>
<path fill-rule="evenodd" clip-rule="evenodd" d="M139.29 79.2611H58.4205V123.372H139.29V79.2611ZM58.4205 68.2334C55.3565 68.2334 52.418 69.3952 50.2514 71.4633C48.0848 73.5314 46.8677 76.3364 46.8677 79.2611V123.372C46.8677 126.297 48.0848 129.102 50.2514 131.17C52.418 133.238 55.3565 134.4 58.4205 134.4H139.29C142.354 134.4 145.293 133.238 147.459 131.17C149.626 129.102 150.843 126.297 150.843 123.372V79.2611C150.843 76.3364 149.626 73.5314 147.459 71.4633C145.293 69.3952 142.354 68.2334 139.29 68.2334H58.4205Z" fill="#F4F1C1"/>
<path fill-rule="evenodd" clip-rule="evenodd" d="M35.84 72.9599C35.84 68.7817 37.4997 64.7747 40.4542 61.8202C43.4086 58.8658 47.4156 57.2061 51.5938 57.2061H139.815C143.994 57.2061 148.001 58.8658 150.955 61.8202C153.909 64.7747 155.569 68.7817 155.569 72.9599V123.372C155.569 127.55 153.909 131.557 150.955 134.512C148.001 137.466 143.994 139.126 139.815 139.126H51.5938C47.4156 139.126 43.4086 137.466 40.4542 134.512C37.4997 131.557 35.84 127.55 35.84 123.372V72.9599ZM51.5938 63.5076C49.0869 63.5076 46.6827 64.5035 44.91 66.2761C43.1374 68.0488 42.1415 70.453 42.1415 72.9599V123.372C42.1415 125.879 43.1374 128.283 44.91 130.056C46.6827 131.829 49.0869 132.825 51.5938 132.825H139.815C142.322 132.825 144.726 131.829 146.499 130.056C148.272 128.283 149.268 125.879 149.268 123.372V72.9599C149.268 70.453 148.272 68.0488 146.499 66.2761C144.726 64.5035 142.322 63.5076 139.815 63.5076H51.5938Z" fill="black"/>
<path d="M54.7446 77.6857C54.7446 77.2679 54.9106 76.8672 55.206 76.5718C55.5015 76.2763 55.9022 76.1104 56.32 76.1104H59.4708C59.8886 76.1104 60.2893 76.2763 60.5848 76.5718C60.8802 76.8672 61.0462 77.2679 61.0462 77.6857V80.8365C61.0462 81.2543 60.8802 81.655 60.5848 81.9505C60.2893 82.2459 59.8886 82.4119 59.4708 82.4119H56.32C55.9022 82.4119 55.5015 82.2459 55.206 81.9505C54.9106 81.655 54.7446 81.2543 54.7446 80.8365V77.6857Z" fill="black"/>
<path fill-rule="evenodd" clip-rule="evenodd" d="M50.0184 77.6863C50.0184 76.015 50.6823 74.4122 51.8641 73.2304C53.0459 72.0487 54.6487 71.3848 56.32 71.3848H59.4707C61.142 71.3848 62.7448 72.0487 63.9266 73.2304C65.1084 74.4122 65.7723 76.015 65.7723 77.6863V80.8371C65.7723 82.5083 65.1084 84.1112 63.9266 85.2929C62.7448 86.4747 61.142 87.1386 59.4707 87.1386H56.32C54.6487 87.1386 53.0459 86.4747 51.8641 85.2929C50.6823 84.1112 50.0184 82.5083 50.0184 80.8371V77.6863ZM57.8954 80.4149C58.3739 80.1379 58.7715 79.7403 59.0485 79.2617C58.7715 78.7831 58.3739 78.3855 57.8954 78.1085C57.4168 78.3855 57.0192 78.7831 56.7422 79.2617C57.0194 79.7406 57.4164 80.1439 57.8954 80.4149Z" fill="black"/>
<path d="M73.6492 77.6857C73.6492 77.2679 73.8151 76.8672 74.1106 76.5718C74.406 76.2763 74.8067 76.1104 75.2246 76.1104H78.3753C78.7931 76.1104 79.1938 76.2763 79.4893 76.5718C79.7847 76.8672 79.9507 77.2679 79.9507 77.6857V80.8365C79.9507 81.2543 79.7847 81.655 79.4893 81.9505C79.1938 82.2459 78.7931 82.4119 78.3753 82.4119H75.2246C74.8067 82.4119 74.406 82.2459 74.1106 81.9505C73.8151 81.655 73.6492 81.2543 73.6492 80.8365V77.6857Z" fill="black"/>
<path fill-rule="evenodd" clip-rule="evenodd" d="M68.9231 77.6863C68.9231 76.015 69.587 74.4122 70.7688 73.2304C71.9505 72.0487 73.5534 71.3848 75.2246 71.3848H78.3754C80.0467 71.3848 81.6495 72.0487 82.8313 73.2304C84.013 74.4122 84.6769 76.015 84.6769 77.6863V80.8371C84.6769 82.5083 84.013 84.1112 82.8313 85.2929C81.6495 86.4747 80.0467 87.1386 78.3754 87.1386H75.2246C73.5534 87.1386 71.9505 86.4747 70.7688 85.2929C69.587 84.1112 68.9231 82.5083 68.9231 80.8371V77.6863ZM76.8 80.4149C77.2786 80.1379 77.6762 79.7403 77.9532 79.2617C77.6762 78.7831 77.2786 78.3855 76.8 78.1085C76.3214 78.3855 75.9238 78.7831 75.6468 79.2617C75.9241 79.7406 76.3211 80.1439 76.8 80.4149Z" fill="black"/>
<path d="M92.5538 77.6857C92.5538 77.2679 92.7198 76.8672 93.0153 76.5718C93.3107 76.2763 93.7114 76.1104 94.1292 76.1104H97.28C97.6978 76.1104 98.0985 76.2763 98.394 76.5718C98.6894 76.8672 98.8554 77.2679 98.8554 77.6857V80.8365C98.8554 81.2543 98.6894 81.655 98.394 81.9505C98.0985 82.2459 97.6978 82.4119 97.28 82.4119H94.1292C93.7114 82.4119 93.3107 82.2459 93.0153 81.9505C92.7198 81.655 92.5538 81.2543 92.5538 80.8365V77.6857Z" fill="black"/>
<path fill-rule="evenodd" clip-rule="evenodd" d="M87.8276 77.6863C87.8276 76.015 88.4915 74.4122 89.6733 73.2304C90.8551 72.0487 92.4579 71.3848 94.1292 71.3848H97.2799C98.9512 71.3848 100.554 72.0487 101.736 73.2304C102.918 74.4122 103.581 76.015 103.581 77.6863V80.8371C103.581 82.5083 102.918 84.1112 101.736 85.2929C100.554 86.4747 98.9512 87.1386 97.2799 87.1386H94.1292C92.4579 87.1386 90.8551 86.4747 89.6733 85.2929C88.4915 84.1112 87.8276 82.5083 87.8276 80.8371V77.6863ZM95.7046 80.4149C96.1831 80.1379 96.5807 79.7403 96.8577 79.2617C96.5807 78.7831 96.1831 78.3855 95.7046 78.1085C95.226 78.3855 94.8284 78.7831 94.5514 79.2617C94.8286 79.7406 95.2256 80.1439 95.7046 80.4149Z" fill="black"/>
<path d="M111.458 77.6857C111.458 77.2679 111.624 76.8672 111.92 76.5718C112.215 76.2763 112.616 76.1104 113.034 76.1104H116.185C116.602 76.1104 117.003 76.2763 117.299 76.5718C117.594 76.8672 117.76 77.2679 117.76 77.6857V80.8365C117.76 81.2543 117.594 81.655 117.299 81.9505C117.003 82.2459 116.602 82.4119 116.185 82.4119H113.034C112.616 82.4119 112.215 82.2459 111.92 81.9505C111.624 81.655 111.458 81.2543 111.458 80.8365V77.6857Z" fill="black"/>
<path fill-rule="evenodd" clip-rule="evenodd" d="M106.732 77.6863C106.732 76.015 107.396 74.4122 108.578 73.2304C109.76 72.0487 111.363 71.3848 113.034 71.3848H116.185C117.856 71.3848 119.459 72.0487 120.64 73.2304C121.822 74.4122 122.486 76.015 122.486 77.6863V80.8371C122.486 82.5083 121.822 84.1112 120.64 85.2929C119.459 86.4747 117.856 87.1386 116.185 87.1386H113.034C111.363 87.1386 109.76 86.4747 108.578 85.2929C107.396 84.1112 106.732 82.5083 106.732 80.8371V77.6863ZM114.609 80.4149C115.088 80.1379 115.485 79.7403 115.762 79.2617C115.485 78.7831 115.088 78.3855 114.609 78.1085C114.131 78.3855 113.733 78.7831 113.456 79.2617C113.733 79.7406 114.13 80.1439 114.609 80.4149Z" fill="black"/>
<path d="M130.363 77.6857C130.363 77.2679 130.529 76.8672 130.824 76.5718C131.12 76.2763 131.521 76.1104 131.938 76.1104H135.089C135.507 76.1104 135.908 76.2763 136.203 76.5718C136.499 76.8672 136.665 77.2679 136.665 77.6857V80.8365C136.665 81.2543 136.499 81.655 136.203 81.9505C135.908 82.2459 135.507 82.4119 135.089 82.4119H131.938C131.521 82.4119 131.12 82.2459 130.824 81.9505C130.529 81.655 130.363 81.2543 130.363 80.8365V77.6857Z" fill="black"/>
<path fill-rule="evenodd" clip-rule="evenodd" d="M125.637 77.6863C125.637 76.015 126.301 74.4122 127.483 73.2304C128.664 72.0487 130.267 71.3848 131.938 71.3848H135.089C136.76 71.3848 138.363 72.0487 139.545 73.2304C140.727 74.4122 141.391 76.015 141.391 77.6863V80.8371C141.391 82.5083 140.727 84.1112 139.545 85.2929C138.363 86.4747 136.76 87.1386 135.089 87.1386H131.938C130.267 87.1386 128.664 86.4747 127.483 85.2929C126.301 84.1112 125.637 82.5083 125.637 80.8371V77.6863ZM133.514 80.4149C133.992 80.1379 134.39 79.7403 134.667 79.2617C134.39 78.7831 133.992 78.3855 133.514 78.1085C133.035 78.3855 132.638 78.7831 132.361 79.2617C132.638 79.7406 133.035 80.1439 133.514 80.4149Z" fill="black"/>
<path d="M64.1969 96.591C64.1969 96.1732 64.3629 95.7725 64.6583 95.477C64.9538 95.1816 65.3545 95.0156 65.7723 95.0156H68.9231C69.3409 95.0156 69.7416 95.1816 70.037 95.477C70.3325 95.7725 70.4984 96.1732 70.4984 96.591V99.7418C70.4984 100.16 70.3325 100.56 70.037 100.856C69.7416 101.151 69.3409 101.317 68.9231 101.317H65.7723C65.3545 101.317 64.9538 101.151 64.6583 100.856C64.3629 100.56 64.1969 100.16 64.1969 99.7418V96.591Z" fill="black"/>
<path fill-rule="evenodd" clip-rule="evenodd" d="M59.4707 96.5906C59.4707 94.9193 60.1346 93.3165 61.3164 92.1347C62.4982 90.953 64.101 90.2891 65.7722 90.2891H68.923C70.5943 90.2891 72.1971 90.953 73.3789 92.1347C74.5606 93.3165 75.2246 94.9193 75.2246 96.5906V99.7414C75.2246 101.413 74.5606 103.015 73.3789 104.197C72.1971 105.379 70.5943 106.043 68.923 106.043H65.7722C64.101 106.043 62.4982 105.379 61.3164 104.197C60.1346 103.015 59.4707 101.413 59.4707 99.7414V96.5906ZM67.3476 99.3192C67.8262 99.0422 68.2238 98.6446 68.5008 98.166C68.2238 97.6874 67.8262 97.2898 67.3476 97.0128C66.8691 97.2898 66.4714 97.6874 66.1944 98.166C66.4717 98.6449 66.8687 99.0482 67.3476 99.3192Z" fill="black"/>
<path d="M83.1016 96.591C83.1016 96.1732 83.2675 95.7725 83.563 95.477C83.8584 95.1816 84.2591 95.0156 84.6769 95.0156H87.8277C88.2455 95.0156 88.6462 95.1816 88.9417 95.477C89.2371 95.7725 89.4031 96.1732 89.4031 96.591V99.7418C89.4031 100.16 89.2371 100.56 88.9417 100.856C88.6462 101.151 88.2455 101.317 87.8277 101.317H84.6769C84.2591 101.317 83.8584 101.151 83.563 100.856C83.2675 100.56 83.1016 100.16 83.1016 99.7418V96.591Z" fill="black"/>
<path fill-rule="evenodd" clip-rule="evenodd" d="M78.3754 96.5906C78.3754 94.9193 79.0393 93.3165 80.221 92.1347C81.4028 90.953 83.0056 90.2891 84.6769 90.2891H87.8277C89.4989 90.2891 91.1018 90.953 92.2835 92.1347C93.4653 93.3165 94.1292 94.9193 94.1292 96.5906V99.7414C94.1292 101.413 93.4653 103.015 92.2835 104.197C91.1018 105.379 89.4989 106.043 87.8277 106.043H84.6769C83.0056 106.043 81.4028 105.379 80.221 104.197C79.0393 103.015 78.3754 101.413 78.3754 99.7414V96.5906ZM86.2523 99.3192C86.7309 99.0422 87.1285 98.6446 87.4055 98.166C87.1285 97.6874 86.7309 97.2898 86.2523 97.0128C85.7737 97.2898 85.3761 97.6874 85.0991 98.166C85.3764 98.6449 85.7734 99.0482 86.2523 99.3192Z" fill="black"/>
<path d="M102.006 96.591C102.006 96.1732 102.172 95.7725 102.468 95.477C102.763 95.1816 103.164 95.0156 103.581 95.0156H106.732C107.15 95.0156 107.551 95.1816 107.846 95.477C108.142 95.7725 108.308 96.1732 108.308 96.591V99.7418C108.308 100.16 108.142 100.56 107.846 100.856C107.551 101.151 107.15 101.317 106.732 101.317H103.581C103.164 101.317 102.763 101.151 102.468 100.856C102.172 100.56 102.006 100.16 102.006 99.7418V96.591Z" fill="black"/>
<path fill-rule="evenodd" clip-rule="evenodd" d="M97.2799 96.5906C97.2799 94.9193 97.9438 93.3165 99.1256 92.1347C100.307 90.953 101.91 90.2891 103.581 90.2891H106.732C108.403 90.2891 110.006 90.953 111.188 92.1347C112.37 93.3165 113.034 94.9193 113.034 96.5906V99.7414C113.034 101.413 112.37 103.015 111.188 104.197C110.006 105.379 108.403 106.043 106.732 106.043H103.581C101.91 106.043 100.307 105.379 99.1256 104.197C97.9438 103.015 97.2799 101.413 97.2799 99.7414V96.5906ZM105.157 99.3192C105.635 99.0422 106.033 98.6446 106.31 98.166C106.033 97.6874 105.635 97.2898 105.157 97.0128C104.678 97.2898 104.281 97.6874 104.004 98.166C104.281 98.6449 104.678 99.0482 105.157 99.3192Z" fill="black"/>
<path d="M120.911 96.591C120.911 96.1732 121.077 95.7725 121.372 95.477C121.668 95.1816 122.068 95.0156 122.486 95.0156H125.637C126.055 95.0156 126.455 95.1816 126.751 95.477C127.046 95.7725 127.212 96.1732 127.212 96.591V99.7418C127.212 100.16 127.046 100.56 126.751 100.856C126.455 101.151 126.055 101.317 125.637 101.317H122.486C122.068 101.317 121.668 101.151 121.372 100.856C121.077 100.56 120.911 100.16 120.911 99.7418V96.591Z" fill="black"/>
<path fill-rule="evenodd" clip-rule="evenodd" d="M116.185 96.5906C116.185 94.9193 116.848 93.3165 118.03 92.1347C119.212 90.953 120.815 90.2891 122.486 90.2891H125.637C127.308 90.2891 128.911 90.953 130.093 92.1347C131.275 93.3165 131.938 94.9193 131.938 96.5906V99.7414C131.938 101.413 131.275 103.015 130.093 104.197C128.911 105.379 127.308 106.043 125.637 106.043H122.486C120.815 106.043 119.212 105.379 118.03 104.197C116.848 103.015 116.185 101.413 116.185 99.7414V96.5906ZM124.061 99.3192C124.54 99.0422 124.938 98.6446 125.215 98.166C124.938 97.6874 124.54 97.2898 124.061 97.0128C123.583 97.2898 123.185 97.6874 122.908 98.166C123.186 98.6449 123.583 99.0482 124.061 99.3192ZM70.4984 115.495C70.4984 114.242 70.9963 113.04 71.8827 112.153C72.769 111.267 73.9711 110.769 75.2246 110.769H116.185C117.438 110.769 118.64 111.267 119.526 112.153C120.413 113.04 120.911 114.242 120.911 115.495V118.646C120.911 119.899 120.413 121.102 119.526 121.988C118.64 122.874 117.438 123.372 116.185 123.372H75.2246C73.9711 123.372 72.769 122.874 71.8827 121.988C70.9963 121.102 70.4984 119.899 70.4984 118.646V115.495Z" fill="black"/>
</svg>
