<svg width="161" height="219" viewBox="0 0 161 219" fill="none" xmlns="http://www.w3.org/2000/svg">
<g filter="url(#filter0_d_617_9136)">
<path d="M100.151 145.72C103.479 158.988 131.613 129.334 132.823 145.72C134.336 166.201 107.109 153.486 114.974 170.91C121.267 184.85 138.269 170.91 142.201 183.626L151.58 205.636" stroke="black" stroke-width="6"/>
<path d="M99.521 143.796C88.41 149.073 67.1141 108.547 57.855 87.6248L85.6323 72.3053C94.8914 93.937 110.632 138.52 99.521 143.796Z" fill="black" stroke="black" stroke-width="6"/>
<path d="M99.5466 51.6887C99.5466 63.3636 94.957 74.5604 86.7873 82.8158C78.6176 91.0712 67.5372 95.709 55.9835 95.709C44.4299 95.709 33.3494 91.0712 25.1798 82.8158C17.0101 74.5604 12.4204 63.3636 12.4204 51.6887C12.4204 40.0138 17.0101 28.817 25.1798 20.5616C33.3494 12.3062 44.4299 7.66837 55.9835 7.66837C67.5372 7.66837 78.6176 12.3062 86.7873 20.5616C94.957 28.817 99.5466 40.0138 99.5466 51.6887Z" fill="white"/>
<path d="M99.5466 54.1343C99.5466 64.512 95.4987 74.4646 88.2935 81.8028C81.0883 89.1409 71.316 93.2635 61.1263 93.2635C50.9366 93.2635 41.1643 89.1409 33.9591 81.8028C26.7539 74.4646 22.7061 64.512 22.7061 54.1343C22.7061 43.7566 26.7539 33.8039 33.9591 26.4658C41.1643 19.1276 50.9366 15.0051 61.1263 15.0051C71.316 15.0051 81.0883 19.1276 88.2935 26.4658C95.4987 33.8039 99.5466 43.7566 99.5466 54.1343Z" fill="#A1D77C"/>
<path fill-rule="evenodd" clip-rule="evenodd" d="M55.9833 8.89115C50.5803 8.89115 45.2303 9.96651 40.2386 12.0558C35.2469 14.1452 30.7113 17.2075 26.8908 21.0681C23.0704 24.9287 20.0398 29.5119 17.9722 34.5559C15.9045 39.6 14.8403 45.0062 14.8403 50.4659C14.8403 55.9256 15.9045 61.3318 17.9722 66.3759C20.0398 71.42 23.0704 76.0031 26.8908 79.8637C30.7113 83.7243 35.2469 86.7866 40.2386 88.876C45.2303 90.9653 50.5803 92.0407 55.9833 92.0407C66.8951 92.0407 77.36 87.6605 85.0758 79.8637C92.7916 72.0669 97.1263 61.4922 97.1263 50.4659C97.1263 39.4396 92.7916 28.8649 85.0758 21.0681C77.36 13.2713 66.8951 8.89115 55.9833 8.89115ZM10 50.4659C10 44.3639 11.1894 38.3217 13.5003 32.6842C15.8111 27.0467 19.1983 21.9243 23.4682 17.6095C27.7381 13.2948 32.8073 9.87214 38.3863 7.53701C43.9652 5.20188 49.9447 4 55.9833 4C62.0219 4 68.0014 5.20188 73.5803 7.53701C79.1593 9.87214 84.2285 13.2948 88.4984 17.6095C92.7683 21.9243 96.1555 27.0467 98.4663 32.6842C100.777 38.3217 101.967 44.3639 101.967 50.4659C101.967 62.7894 97.1219 74.6082 88.4984 83.3223C79.8749 92.0363 68.1788 96.9318 55.9833 96.9318C43.7878 96.9318 32.0917 92.0363 23.4682 83.3223C14.8447 74.6082 10 62.7894 10 50.4659Z" fill="black"/>
<path fill-rule="evenodd" clip-rule="evenodd" d="M68.0164 14.2225L65.9205 9.98677L70.2478 7.79553L72.3437 12.0313C72.6776 12.7014 72.9003 13.4204 73.0019 14.1638L73.7861 19.6908C74.5605 25.1689 67.6727 28.1818 64.2506 23.8581L63.9118 23.4374C63.8936 23.4101 63.8685 23.3882 63.8392 23.3738C63.807 23.3606 63.7721 23.3556 63.7375 23.3592C63.703 23.3624 63.6697 23.3742 63.6407 23.3934C63.6114 23.4126 63.5879 23.4397 63.5729 23.4717C63.5585 23.5005 63.551 23.5323 63.551 23.5646C63.551 23.5969 63.5585 23.6287 63.5729 23.6575L67.2177 31.0187C67.8499 32.3075 67.9835 33.7882 67.5924 35.1713C67.2012 36.5543 66.3135 37.7401 65.1029 38.4968C63.8923 39.2534 62.4458 39.5264 61.0466 39.2623C59.6473 38.9983 58.3958 38.2162 57.537 37.069L57.3773 36.8587C57.2738 36.7195 57.1368 36.6093 56.9793 36.5386C56.8218 36.4679 56.649 36.439 56.4774 36.4546C56.3058 36.4703 56.1409 36.53 55.9986 36.6282C55.8562 36.7263 55.7409 36.8595 55.6638 37.0152L55.1556 38.0424C55.055 38.246 54.9952 38.4676 54.9794 38.6946C54.9637 38.9216 54.9924 39.1495 55.0638 39.3652C55.1353 39.581 55.2482 39.7804 55.396 39.9521C55.5438 40.1237 55.7236 40.2643 55.9252 40.3657L56.3899 40.6005C57.8357 41.3339 58.9915 42.5428 59.6671 44.0282C60.3427 45.5136 60.4979 47.1872 60.1073 48.7736L57.8565 57.8662C56.598 62.9481 49.9716 64.1073 47.0964 59.7493C46.6643 59.094 46.3634 58.3596 46.2106 57.5874L43.9405 46.1128L42.3141 39.5391L41.288 41.6178L41.2831 41.6276L40.0537 45.3547C37.6771 52.5593 27.3672 51.8159 26.0167 44.3471L24.9954 38.6342C24.9273 38.261 24.7742 37.909 24.5482 37.6059C24.3222 37.3029 24.0295 37.0571 23.6933 36.8881L16.1763 33.0877L18.3447 28.715L25.857 32.5105C26.865 33.0197 27.7418 33.759 28.4181 34.6699C29.0944 35.5809 29.5516 36.6383 29.7534 37.7587L30.7844 43.4716C31.2297 45.966 34.6664 46.2106 35.4602 43.809L36.6897 40.082C36.7642 39.8579 36.8531 39.639 36.9559 39.4266L39.6181 34.061C41.2541 30.7448 46.1429 31.8502 46.2977 35.4794L48.6647 45.0367L50.959 56.6287C51.0087 56.8835 51.143 57.1135 51.3398 57.2807C51.5365 57.4478 51.7838 57.542 52.0407 57.5477C52.2977 57.5534 52.5488 57.4703 52.7526 57.312C52.9564 57.1538 53.1006 56.93 53.1614 56.6777L55.4121 47.5899C55.5369 47.0825 55.4875 46.5473 55.2721 46.0719C55.0567 45.5966 54.6879 45.2092 54.2262 44.9731L53.7567 44.7433C52.9869 44.3541 52.3005 43.8155 51.7366 43.1582C51.1728 42.501 50.7427 41.7379 50.4707 40.9126C50.1988 40.0873 50.0904 39.216 50.1518 38.3484C50.2131 37.4808 50.443 36.6339 50.8283 35.856L51.3365 34.8289C51.7832 33.9281 52.4501 33.1576 53.2741 32.5905C54.0981 32.0233 55.0519 31.6782 56.0449 31.5881C57.038 31.4979 58.0373 31.6657 58.9482 32.0753C59.859 32.485 60.6512 33.123 61.2496 33.9289L61.4093 34.1393C61.5313 34.3377 61.7262 34.4791 61.9514 34.5323C62.1765 34.5855 62.4133 34.5462 62.6097 34.4229C62.8061 34.2997 62.9461 34.1027 62.9987 33.8752C63.0513 33.6477 63.0124 33.4084 62.8905 33.2099L59.2457 25.8488C58.6864 24.7225 58.5598 23.4269 58.8904 22.2119C59.2209 20.997 59.9852 19.9488 61.0356 19.2698C62.086 18.5907 63.3481 18.3289 64.5782 18.535C65.8084 18.741 66.9195 19.4002 67.6969 20.3853L68.0309 20.806C68.1519 20.9625 68.2536 21.0016 68.3213 21.0114C68.4392 21.0328 68.5608 21.0174 68.6698 20.9674C68.7807 20.9219 68.8752 20.8434 68.9409 20.7424C68.9796 20.6837 69.0183 20.581 68.9893 20.3853L68.2148 14.8583C68.1827 14.637 68.1157 14.4224 68.0164 14.2225ZM76.5306 69.9082C77.6097 69.0841 78.8953 68.5811 80.2423 68.4557C81.5893 68.3304 82.9441 68.5879 84.1541 69.199L84.9479 69.6001C85.3905 69.8246 85.8906 69.9065 86.3807 69.8348L93.1475 68.8322C93.7829 68.7388 94.4291 68.9043 94.9437 69.2923C95.4584 69.6803 95.7995 70.259 95.8919 70.9011C95.9844 71.5432 95.8206 72.1962 95.4366 72.7162C95.0526 73.2363 94.4799 73.581 93.8445 73.6744L87.0777 74.6722C85.6099 74.8893 84.1116 74.6469 82.7843 73.9776L81.9905 73.5766C81.5873 73.3726 81.1358 73.2865 80.6868 73.328C80.2378 73.3695 79.8092 73.5369 79.4493 73.8113L75.2091 77.0493C74.3933 77.6722 73.4564 78.1138 72.4598 78.3454L68.2923 79.3139C68.0259 79.3671 67.7914 79.525 67.6402 79.7529C67.4891 79.9809 67.4337 80.2602 67.4864 80.5293C67.539 80.7985 67.6953 81.0355 67.9209 81.1882C68.1464 81.341 68.4228 81.3969 68.6892 81.3437L76.0126 80.1062C77.5272 79.8508 79.0828 80.0871 80.4561 80.7812L83.8879 82.5176L81.7242 86.8903L78.2876 85.1588C77.8313 84.9285 77.3146 84.8497 76.8113 84.9338L69.483 86.1664C67.9579 86.4712 66.3755 86.1514 65.0837 85.2772C63.792 84.4031 62.8969 83.0462 62.5952 81.5051C62.2935 79.964 62.61 78.365 63.4751 77.0597C64.3402 75.7544 65.683 74.8499 67.208 74.545L71.3707 73.5766C71.7039 73.5002 72.0173 73.3535 72.2904 73.1461L76.5306 69.9082ZM76.7726 31.3709C76.7554 31.3854 76.743 31.4049 76.7369 31.4267C76.7309 31.4485 76.7315 31.4717 76.7387 31.4931C76.7445 31.5105 76.7526 31.527 76.7629 31.5421L76.7677 31.5469C76.7898 31.5598 76.8149 31.5665 76.8403 31.5665C76.8654 31.568 76.8904 31.563 76.9129 31.5518C76.9277 31.5364 76.9392 31.5181 76.9468 31.498L77.0678 31.1948L77.1211 31.0676L76.7726 31.3709ZM80.9934 27.6927L81.3515 27.3846C82.6711 26.2339 83.537 24.6419 83.7911 22.8994L84.9576 14.9073L80.1705 14.1932L79.004 22.1853C78.9197 22.7667 78.631 23.298 78.1908 23.682L73.6118 27.6634C72.0629 29.0182 71.4918 31.1997 72.1839 33.1463C73.7183 37.4506 79.6961 37.5924 81.4193 33.3567L81.5452 33.0534C81.5648 33.0037 81.6007 32.9623 81.6468 32.936L85.4126 30.7937C86.0397 30.436 86.6107 29.986 87.1067 29.4584L90.3401 26.0297L86.8357 22.6548L83.6023 26.0884C83.436 26.2625 83.2451 26.4108 83.036 26.5286L80.9934 27.6927ZM66.8886 45.1345C66.2194 45.2413 65.6115 45.5905 65.1786 46.1171C64.7457 46.6437 64.5173 47.3115 64.5362 47.9959C64.5362 49.4045 65.4171 50.3925 66.5014 50.7545C67.2274 51.5468 68.3407 51.9235 69.4394 51.6544L72.668 50.8621C76.2401 49.9817 76.5548 45.1884 73.5392 43.6623L73.5731 43.1634C73.6202 42.3966 73.3808 41.6399 72.9022 41.0429C72.4236 40.4459 71.7406 40.0522 70.9885 39.9397C70.2364 39.8272 69.4699 40.004 68.8407 40.4352C68.2114 40.8665 67.7652 41.5206 67.5904 42.2683L66.9418 45.0563L66.8886 45.1345ZM59.7297 63.0264C59.5173 63.0953 59.3115 63.1837 59.115 63.2905C55.8236 65.0806 56.9998 70.2212 60.8333 70.2212C61.7873 70.223 62.7037 69.8453 63.3842 69.1696L63.9263 69.4387C64.6039 69.781 65.3348 69.83 65.9883 69.6392C66.8547 70.1039 67.9244 70.143 68.8538 69.649L71.4143 68.2843C72.7118 67.6058 73.7127 66.4632 74.2216 65.0794C74.7306 63.6955 74.7111 62.1698 74.1671 60.7996C73.623 59.4295 72.5934 58.3133 71.279 57.6688C69.9646 57.0242 68.4598 56.8976 67.058 57.3135L64.0425 58.189C61.7772 58.8395 60.1218 60.7422 59.7297 63.0313V63.0264ZM64.6523 64.3372L64.4781 64.254V64.0829C64.4781 63.5302 64.8411 63.041 65.3687 62.8894L68.3891 62.0188C68.6351 61.9506 68.8974 61.976 69.126 62.0904C69.3547 62.2047 69.5338 62.3999 69.6294 62.6389C69.7249 62.878 69.7303 63.1441 69.6444 63.3869C69.5585 63.6296 69.3874 63.8321 69.1635 63.9557L67.9583 64.5915C67.4997 64.2114 66.9364 63.9831 66.345 63.9376C65.7536 63.8921 65.1626 64.0316 64.6523 64.3372ZM76.6854 57.5825C76.6861 56.9323 76.8608 56.2943 77.191 55.7362C77.5213 55.1781 77.9948 54.7207 78.5613 54.4124C79.1279 54.104 79.7665 53.9563 80.4093 53.9849C81.0522 54.0134 81.6755 54.2171 82.2131 54.5745L84.0428 55.7973L85.5675 55.5918C86.5111 55.4658 87.4684 55.6803 88.2708 56.1975C89.0732 56.7148 89.6693 57.5016 89.9539 58.4194C90.2385 59.3372 90.1935 60.327 89.8267 61.2145C89.4599 62.102 88.7949 62.8303 87.9489 63.2709L87.3391 63.5888C86.4811 64.0368 85.5288 64.2689 84.5632 64.2654C83.5975 64.262 82.6469 64.0232 81.792 63.5693L81.4145 63.3687C80.8162 63.0516 80.268 62.6461 79.7881 62.1655L78.2247 60.5906C77.7558 60.3097 77.3674 59.9103 77.0975 59.4318C76.8277 58.9533 76.6857 58.4121 76.6854 57.8613V57.5825Z" fill="black"/>
</g>
<defs>
<filter id="filter0_d_617_9136" x="0" y="0" width="160.339" height="218.812" filterUnits="userSpaceOnUse" color-interpolation-filters="sRGB">
<feFlood flood-opacity="0" result="BackgroundImageFix"/>
<feColorMatrix in="SourceAlpha" type="matrix" values="0 0 0 0 0 0 0 0 0 0 0 0 0 0 0 0 0 0 127 0" result="hardAlpha"/>
<feOffset dx="-2" dy="4"/>
<feGaussianBlur stdDeviation="4"/>
<feComposite in2="hardAlpha" operator="out"/>
<feColorMatrix type="matrix" values="0 0 0 0 0 0 0 0 0 0 0 0 0 0 0 0 0 0 0.3 0"/>
<feBlend mode="normal" in2="BackgroundImageFix" result="effect1_dropShadow_617_9136"/>
<feBlend mode="normal" in="SourceGraphic" in2="effect1_dropShadow_617_9136" result="shape"/>
</filter>
</defs>
</svg>
