<svg width="92" height="93" viewBox="0 0 92 93" fill="none" xmlns="http://www.w3.org/2000/svg">
<path d="M89.5466 47.6887C89.5466 59.3636 84.957 70.5604 76.7873 78.8158C68.6176 87.0712 57.5372 91.709 45.9835 91.709C34.4299 91.709 23.3494 87.0712 15.1798 78.8158C7.01008 70.5604 2.42041 59.3636 2.42041 47.6887C2.42041 36.0138 7.01008 24.817 15.1798 16.5616C23.3494 8.30621 34.4299 3.66837 45.9835 3.66837C57.5372 3.66837 68.6176 8.30621 76.7873 16.5616C84.957 24.817 89.5466 36.0138 89.5466 47.6887Z" fill="white"/>
<path d="M89.5466 50.1343C89.5466 60.512 85.4987 70.4646 78.2935 77.8028C71.0883 85.1409 61.316 89.2635 51.1263 89.2635C40.9366 89.2635 31.1643 85.1409 23.9591 77.8028C16.7539 70.4646 12.7061 60.512 12.7061 50.1343C12.7061 39.7566 16.7539 29.8039 23.9591 22.4658C31.1643 15.1276 40.9366 11.0051 51.1263 11.0051C61.316 11.0051 71.0883 15.1276 78.2935 22.4658C85.4987 29.8039 89.5466 39.7566 89.5466 50.1343Z" fill="#A1D77C"/>
<path fill-rule="evenodd" clip-rule="evenodd" d="M45.9833 4.89115C40.5803 4.89115 35.2303 5.96651 30.2386 8.05584C25.2469 10.1452 20.7113 13.2075 16.8908 17.0681C13.0704 20.9287 10.0398 25.5119 7.97217 30.5559C5.90454 35.6 4.84035 41.0062 4.84035 46.4659C4.84035 51.9256 5.90454 57.3318 7.97217 62.3759C10.0398 67.42 13.0704 72.0031 16.8908 75.8637C20.7113 79.7243 25.2469 82.7866 30.2386 84.876C35.2303 86.9653 40.5803 88.0407 45.9833 88.0407C56.8951 88.0407 67.36 83.6605 75.0758 75.8637C82.7916 68.0669 87.1263 57.4922 87.1263 46.4659C87.1263 35.4396 82.7916 24.8649 75.0758 17.0681C67.36 9.27133 56.8951 4.89115 45.9833 4.89115ZM0 46.4659C-8.99823e-08 40.3639 1.18939 34.3217 3.50027 28.6842C5.81115 23.0467 9.19825 17.9243 13.4682 13.6095C17.7381 9.29479 22.8073 5.87214 28.3863 3.53701C33.9652 1.20188 39.9447 0 45.9833 0C52.0219 0 58.0014 1.20188 63.5803 3.53701C69.1593 5.87214 74.2285 9.29479 78.4984 13.6095C82.7683 17.9243 86.1555 23.0467 88.4663 28.6842C90.7772 34.3217 91.9666 40.3639 91.9666 46.4659C91.9666 58.7894 87.1219 70.6082 78.4984 79.3223C69.8749 88.0363 58.1788 92.9318 45.9833 92.9318C33.7878 92.9318 22.0917 88.0363 13.4682 79.3223C4.84466 70.6082 1.81728e-07 58.7894 0 46.4659Z" fill="black"/>
<path fill-rule="evenodd" clip-rule="evenodd" d="M58.0164 10.2225L55.9205 5.98677L60.2478 3.79553L62.3437 8.03127C62.6776 8.70135 62.9003 9.42035 63.0019 10.1638L63.7861 15.6908C64.5605 21.1689 57.6727 24.1818 54.2506 19.8581L53.9118 19.4374C53.8936 19.4101 53.8685 19.3882 53.8392 19.3738C53.807 19.3606 53.7721 19.3556 53.7375 19.3592C53.703 19.3624 53.6697 19.3742 53.6407 19.3934C53.6114 19.4126 53.5879 19.4397 53.5729 19.4717C53.5585 19.5005 53.551 19.5323 53.551 19.5646C53.551 19.5969 53.5585 19.6287 53.5729 19.6575L57.2177 27.0187C57.8499 28.3075 57.9835 29.7882 57.5924 31.1713C57.2012 32.5543 56.3135 33.7401 55.1029 34.4968C53.8923 35.2534 52.4458 35.5264 51.0466 35.2623C49.6473 34.9983 48.3958 34.2162 47.537 33.069L47.3773 32.8587C47.2738 32.7195 47.1368 32.6093 46.9793 32.5386C46.8218 32.4679 46.649 32.439 46.4774 32.4546C46.3058 32.4703 46.1409 32.53 45.9986 32.6282C45.8562 32.7263 45.7409 32.8595 45.6638 33.0152L45.1556 34.0424C45.055 34.246 44.9952 34.4676 44.9794 34.6946C44.9637 34.9216 44.9924 35.1495 45.0638 35.3652C45.1353 35.581 45.2482 35.7804 45.396 35.9521C45.5438 36.1237 45.7236 36.2643 45.9252 36.3657L46.3899 36.6005C47.8357 37.3339 48.9915 38.5428 49.6671 40.0282C50.3427 41.5136 50.4979 43.1872 50.1073 44.7736L47.8565 53.8662C46.598 58.9481 39.9716 60.1073 37.0964 55.7493C36.6643 55.094 36.3634 54.3596 36.2106 53.5874L33.9405 42.1128L32.3141 35.5391L31.288 37.6178L31.2831 37.6276L30.0537 41.3547C27.6771 48.5593 17.3672 47.8159 16.0167 40.3471L14.9954 34.6342C14.9273 34.261 14.7742 33.909 14.5482 33.6059C14.3222 33.3029 14.0295 33.0571 13.6933 32.8881L6.17627 29.0877L8.34474 24.715L15.857 28.5105C16.865 29.0197 17.7418 29.759 18.4181 30.6699C19.0944 31.5809 19.5516 32.6383 19.7534 33.7587L20.7844 39.4716C21.2297 41.966 24.6664 42.2106 25.4602 39.809L26.6897 36.082C26.7642 35.8579 26.8531 35.639 26.9559 35.4266L29.6181 30.061C31.2541 26.7448 36.1429 27.8502 36.2977 31.4794L38.6647 41.0367L40.959 52.6287C41.0087 52.8835 41.143 53.1135 41.3398 53.2807C41.5365 53.4478 41.7838 53.542 42.0407 53.5477C42.2977 53.5534 42.5488 53.4703 42.7526 53.312C42.9564 53.1538 43.1006 52.93 43.1614 52.6777L45.4121 43.5899C45.5369 43.0825 45.4875 42.5473 45.2721 42.0719C45.0567 41.5966 44.6879 41.2092 44.2262 40.9731L43.7567 40.7433C42.9869 40.3541 42.3005 39.8155 41.7366 39.1582C41.1728 38.501 40.7427 37.7379 40.4707 36.9126C40.1988 36.0873 40.0904 35.216 40.1518 34.3484C40.2131 33.4808 40.443 32.6339 40.8283 31.856L41.3365 30.8289C41.7832 29.9281 42.4501 29.1576 43.2741 28.5905C44.0981 28.0233 45.0519 27.6782 46.0449 27.5881C47.038 27.4979 48.0373 27.6657 48.9482 28.0753C49.859 28.485 50.6512 29.123 51.2496 29.9289L51.4093 30.1393C51.5313 30.3377 51.7262 30.4791 51.9514 30.5323C52.1765 30.5855 52.4133 30.5462 52.6097 30.4229C52.8061 30.2997 52.9461 30.1027 52.9987 29.8752C53.0513 29.6477 53.0124 29.4084 52.8905 29.2099L49.2457 21.8488C48.6864 20.7225 48.5598 19.4269 48.8904 18.2119C49.2209 16.997 49.9852 15.9488 51.0356 15.2698C52.086 14.5907 53.3481 14.3289 54.5782 14.535C55.8084 14.741 56.9195 15.4002 57.6969 16.3853L58.0309 16.806C58.1519 16.9625 58.2536 17.0016 58.3213 17.0114C58.4392 17.0328 58.5608 17.0174 58.6698 16.9674C58.7807 16.9219 58.8752 16.8434 58.9409 16.7424C58.9796 16.6837 59.0183 16.581 58.9893 16.3853L58.2148 10.8583C58.1827 10.637 58.1157 10.4224 58.0164 10.2225ZM66.5306 65.9082C67.6097 65.0841 68.8953 64.5811 70.2423 64.4557C71.5893 64.3304 72.9441 64.5879 74.1541 65.199L74.9479 65.6001C75.3905 65.8246 75.8906 65.9065 76.3807 65.8348L83.1475 64.8322C83.7829 64.7388 84.4291 64.9043 84.9437 65.2923C85.4584 65.6803 85.7995 66.259 85.8919 66.9011C85.9844 67.5432 85.8206 68.1962 85.4366 68.7162C85.0526 69.2363 84.4799 69.581 83.8445 69.6744L77.0777 70.6722C75.6099 70.8893 74.1116 70.6469 72.7843 69.9776L71.9905 69.5766C71.5873 69.3726 71.1358 69.2865 70.6868 69.328C70.2378 69.3695 69.8092 69.5369 69.4493 69.8113L65.2091 73.0493C64.3933 73.6722 63.4564 74.1138 62.4598 74.3454L58.2923 75.3139C58.0259 75.3671 57.7914 75.525 57.6402 75.7529C57.4891 75.9809 57.4337 76.2602 57.4864 76.5293C57.539 76.7985 57.6953 77.0355 57.9209 77.1882C58.1464 77.341 58.4228 77.3969 58.6892 77.3437L66.0126 76.1062C67.5272 75.8508 69.0828 76.0871 70.4561 76.7812L73.8879 78.5176L71.7242 82.8903L68.2876 81.1588C67.8313 80.9285 67.3146 80.8497 66.8113 80.9338L59.483 82.1664C57.9579 82.4712 56.3755 82.1514 55.0837 81.2772C53.792 80.4031 52.8969 79.0462 52.5952 77.5051C52.2935 75.964 52.61 74.365 53.4751 73.0597C54.3402 71.7544 55.683 70.8499 57.208 70.545L61.3707 69.5766C61.7039 69.5002 62.0173 69.3535 62.2904 69.1461L66.5306 65.9082ZM66.7726 27.3709C66.7554 27.3854 66.743 27.4049 66.7369 27.4267C66.7309 27.4485 66.7315 27.4717 66.7387 27.4931C66.7445 27.5105 66.7526 27.527 66.7629 27.5421L66.7677 27.5469C66.7898 27.5598 66.8149 27.5665 66.8403 27.5665C66.8654 27.568 66.8904 27.563 66.9129 27.5518C66.9277 27.5364 66.9392 27.5181 66.9468 27.498L67.0678 27.1948L67.1211 27.0676L66.7726 27.3709ZM70.9934 23.6927L71.3515 23.3846C72.6711 22.2339 73.537 20.6419 73.7911 18.8994L74.9576 10.9073L70.1705 10.1932L69.004 18.1853C68.9197 18.7667 68.631 19.298 68.1908 19.682L63.6118 23.6634C62.0629 25.0182 61.4918 27.1997 62.1839 29.1463C63.7183 33.4506 69.6961 33.5924 71.4193 29.3567L71.5452 29.0534C71.5648 29.0037 71.6007 28.9623 71.6468 28.936L75.4126 26.7937C76.0397 26.436 76.6107 25.986 77.1067 25.4584L80.3401 22.0297L76.8357 18.6548L73.6023 22.0884C73.436 22.2625 73.2451 22.4108 73.036 22.5286L70.9934 23.6927ZM56.8886 41.1345C56.2194 41.2413 55.6115 41.5905 55.1786 42.1171C54.7457 42.6437 54.5173 43.3115 54.5362 43.9959C54.5362 45.4045 55.4171 46.3925 56.5014 46.7545C57.2274 47.5468 58.3407 47.9235 59.4394 47.6544L62.668 46.8621C66.2401 45.9817 66.5548 41.1884 63.5392 39.6623L63.5731 39.1634C63.6202 38.3966 63.3808 37.6399 62.9022 37.0429C62.4236 36.4459 61.7406 36.0522 60.9885 35.9397C60.2364 35.8272 59.4699 36.004 58.8407 36.4352C58.2114 36.8665 57.7652 37.5206 57.5904 38.2683L56.9418 41.0563L56.8886 41.1345ZM49.7297 59.0264C49.5173 59.0953 49.3115 59.1837 49.115 59.2905C45.8236 61.0806 46.9998 66.2212 50.8333 66.2212C51.7873 66.223 52.7037 65.8453 53.3842 65.1696L53.9263 65.4387C54.6039 65.781 55.3348 65.83 55.9883 65.6392C56.8547 66.1039 57.9244 66.143 58.8538 65.649L61.4143 64.2843C62.7118 63.6058 63.7127 62.4632 64.2216 61.0794C64.7306 59.6955 64.7111 58.1698 64.1671 56.7996C63.623 55.4295 62.5934 54.3133 61.279 53.6688C59.9646 53.0242 58.4598 52.8976 57.058 53.3135L54.0425 54.189C51.7772 54.8395 50.1218 56.7422 49.7297 59.0313V59.0264ZM54.6523 60.3372L54.4781 60.254V60.0829C54.4781 59.5302 54.8411 59.041 55.3687 58.8894L58.3891 58.0188C58.6351 57.9506 58.8974 57.976 59.126 58.0904C59.3547 58.2047 59.5338 58.3999 59.6294 58.6389C59.7249 58.878 59.7303 59.1441 59.6444 59.3869C59.5585 59.6296 59.3874 59.8321 59.1635 59.9557L57.9583 60.5915C57.4997 60.2114 56.9364 59.9831 56.345 59.9376C55.7536 59.8921 55.1626 60.0316 54.6523 60.3372ZM66.6854 53.5825C66.6861 52.9323 66.8608 52.2943 67.191 51.7362C67.5213 51.1781 67.9948 50.7207 68.5613 50.4124C69.1279 50.104 69.7665 49.9563 70.4093 49.9849C71.0522 50.0134 71.6755 50.2171 72.2131 50.5745L74.0428 51.7973L75.5675 51.5918C76.5111 51.4658 77.4684 51.6803 78.2708 52.1975C79.0732 52.7148 79.6693 53.5016 79.9539 54.4194C80.2385 55.3372 80.1935 56.327 79.8267 57.2145C79.4599 58.102 78.7949 58.8303 77.9489 59.2709L77.3391 59.5888C76.4811 60.0368 75.5288 60.2689 74.5632 60.2654C73.5975 60.262 72.6469 60.0232 71.792 59.5693L71.4145 59.3687C70.8162 59.0516 70.268 58.6461 69.7881 58.1655L68.2247 56.5906C67.7558 56.3097 67.3674 55.9103 67.0975 55.4318C66.8277 54.9533 66.6857 54.4121 66.6854 53.8613V53.5825Z" fill="black"/>
</svg>
