<svg width="102" height="102" viewBox="0 0 102 102" fill="none" xmlns="http://www.w3.org/2000/svg">
<path d="M41.2545 33.4164C41.0961 33.1543 41.0247 32.8496 41.0506 32.5467C41.0764 32.2438 41.1982 31.9582 41.3982 31.7315C41.5983 31.5047 41.8662 31.3485 42.1633 31.2855C42.4603 31.2225 42.771 31.256 43.0503 31.381L88.9887 51.549C89.2327 51.6586 89.4424 51.8335 89.5941 52.0543C89.7458 52.275 89.8337 52.5327 89.8478 52.7987C89.8619 53.0646 89.8017 53.3282 89.674 53.5599C89.5462 53.7917 89.356 53.9824 89.1245 54.1107L43.6219 79.5459C43.3588 79.691 43.0554 79.7487 42.7551 79.7106C42.4548 79.6726 42.1729 79.5408 41.9496 79.3341C41.7264 79.1273 41.5733 78.8563 41.5121 78.5596C41.451 78.2629 41.4849 77.9557 41.6091 77.682L52.3275 50.1231L41.2545 33.4164Z" fill="#F4F1C1"/>
<path fill-rule="evenodd" clip-rule="evenodd" d="M31.6113 21.9198L48.5148 50.0565C49.0259 50.9072 49.0832 51.9556 48.6679 52.8569L34.4575 83.6974C34.2704 84.105 34.2169 84.5613 34.3047 85.0012C34.3925 85.441 34.617 85.8418 34.9462 86.1465C35.2754 86.4511 35.6924 86.6439 36.1377 86.6973C36.583 86.7508 37.0338 86.6622 37.4258 86.4441L99.7118 51.6099C100.057 51.417 100.341 51.1319 100.533 50.7866C100.725 50.4413 100.817 50.0494 100.798 49.6547C100.78 49.2601 100.652 48.8783 100.429 48.5522C100.207 48.2261 99.8972 47.9684 99.5361 47.8082L34.2971 18.8799C33.8838 18.6971 33.4231 18.6506 32.9816 18.7472C32.5402 18.8437 32.1409 19.0783 31.8417 19.4169C31.5425 19.7556 31.3589 20.1807 31.3175 20.6307C31.2761 21.0807 31.379 21.5322 31.6113 21.9198ZM43.6096 33.6312C42.1006 31.1192 44.7184 28.156 47.3973 29.3438L88.4364 47.5405C90.6963 48.5426 90.8424 51.6946 88.6848 52.9013L49.1059 75.0373C46.5705 76.4553 43.7011 73.8019 44.9169 71.1634L53.6676 52.1734C53.8118 51.859 53.8771 51.5142 53.858 51.1688C53.8388 50.8235 53.7358 50.488 53.5578 50.1915L43.6096 33.6312Z" fill="black"/>
<path d="M95.9681 48.1648L96.0166 52.4193L49.638 52.9475L49.5896 48.693L95.9681 48.1648Z" fill="black"/>
</svg>
